<svg width="58" height="58" viewBox="0 0 58 58" fill="none" xmlns="http://www.w3.org/2000/svg">
<g clip-path="url(#clip0_17_1047)">
<path d="M49.5058 4.49566C48.8422 3.83217 47.7663 3.83217 47.1028 4.49566C46.4392 5.15926 46.4393 6.23521 47.1028 6.8987C51.9385 11.7341 54.6016 18.1632 54.6016 25.0018C54.6016 25.9403 55.3624 26.7011 56.3008 26.7011C57.2392 26.7011 58 25.9403 58 25.0018C58 17.2554 54.9834 9.97281 49.5058 4.49566Z" fill="#FFCF54"/>
<path d="M10.8969 4.49571C10.2333 3.83222 9.15743 3.8321 8.49383 4.49571C3.01645 9.97331 0 17.2558 0 25.0018C0 25.9402 0.760797 26.701 1.69922 26.701C2.63764 26.701 3.39844 25.9402 3.39844 25.0018C3.39844 18.1635 6.06145 11.7345 10.8969 6.89885C11.5605 6.23525 11.5605 5.15931 10.8969 4.49571Z" fill="#FFCF54"/>
<path d="M41.9546 9.64314C41.291 10.3067 41.2911 11.3826 41.9546 12.0462C45.4154 15.5067 47.3212 20.1077 47.3212 25.0019C47.3212 25.9403 48.082 26.7011 49.0204 26.7011C49.9588 26.7011 50.7196 25.9403 50.7196 25.0019C50.7196 19.2 48.4602 13.7454 44.3577 9.64302C43.694 8.97965 42.6182 8.97965 41.9546 9.64314Z" fill="#FFCF54"/>
<path d="M16.0445 9.6436C15.3809 8.98011 14.3049 8.98011 13.6414 9.64371C9.53941 13.7463 7.28024 19.2005 7.28024 25.0016C7.28024 25.94 8.04104 26.7008 8.97946 26.7008C9.91788 26.7008 10.6787 25.94 10.6787 25.0016C10.6787 20.1082 12.5844 15.5074 16.0447 12.0466C16.7082 11.383 16.7081 10.3072 16.0445 9.6436Z" fill="#FFCF54"/>
<path d="M43.4396 37.3408V28.6417C43.4396 25.4686 42.4294 22.4577 40.5181 19.9343C38.9207 17.8254 36.7422 16.1779 34.2945 15.2086C33.9539 12.5905 31.7095 10.562 29 10.562C26.2905 10.562 24.0459 12.5904 23.7052 15.2086C21.2577 16.178 19.0792 17.8255 17.4818 19.9343C15.5705 22.4577 14.5603 25.4686 14.5603 28.6417V37.3408L11.0996 44.2623C10.8363 44.789 10.8645 45.4146 11.1741 45.9155C11.4837 46.4164 12.0306 46.7214 12.6195 46.7214H20.1838C20.9805 50.8627 24.6296 54.0016 28.9999 54.0016C33.37 54.0016 37.0192 50.8627 37.8158 46.7214H45.3805C45.9694 46.7214 46.5163 46.4164 46.8259 45.9155C47.1355 45.4146 47.1636 44.789 46.9004 44.2623L43.4396 37.3408ZM29 50.6032C26.5148 50.6032 24.4038 48.9705 23.6834 46.7214H34.3165C33.596 48.9705 31.4852 50.6032 29 50.6032ZM36.2801 43.323H21.7198H15.369L17.7795 38.5018C17.8975 38.2659 17.9588 38.0058 17.9588 37.7419V28.6417C17.9588 23.7941 21.2015 19.4429 25.8445 18.0607C26.565 17.8461 27.0589 17.1838 27.0589 16.4321V15.9013C27.0589 14.8311 27.9297 13.9604 29 13.9604C30.0702 13.9604 30.9408 14.8311 30.9408 15.9013V16.4321C30.9408 17.1839 31.4347 17.8462 32.1552 18.0607C36.7983 19.4429 40.0412 23.7939 40.0412 28.6417V37.7419C40.0412 38.0058 40.1026 38.2659 40.2205 38.5018L42.631 43.323H36.2801Z" fill="#FFA654"/>
</g>
<defs>
<clipPath id="clip0_17_1047">
<rect width="58" height="58" fill="white"/>
</clipPath>
</defs>
</svg>
