<svg width="54" height="54" viewBox="0 0 54 54" fill="none" xmlns="http://www.w3.org/2000/svg">
<g clip-path="url(#clip0_16_948)">
<path d="M49.4586 18.2434C51.3508 18.887 52.7037 20.22 53.3721 22.0987C53.9824 23.8143 54.1667 26.7822 53.8416 29.6597C53.5463 32.2804 52.7055 36.0202 50.376 38.9524C48.1749 41.7223 45.0786 43.1864 41.4219 43.1864C41.0492 43.1864 40.67 43.1704 40.2898 43.1404C39.5448 44.1386 38.6657 45.0405 37.6693 45.8181H47.7455C48.1885 45.8181 48.5475 46.1772 48.5475 46.6201C48.5475 50.4352 45.4439 53.539 41.6288 53.539H6.91886C3.10377 53.539 0 50.4352 0 46.6201C0 46.1772 0.359085 45.8181 0.802007 45.8181H10.8837C8.14091 43.6713 6.24935 40.5563 5.66196 37.079C5.58828 36.6422 5.88246 36.2284 6.31918 36.1546C6.75664 36.0805 7.16994 36.3752 7.24362 36.8118C7.89496 40.6671 10.3566 44.0199 13.8428 45.8181H34.7035C38.7637 43.7255 41.3538 39.6163 41.4752 35.0474C41.6358 28.9879 41.3621 22.8523 40.6613 16.7995C37.7286 16.5171 33.1814 16.248 30.2335 16.1179C22.7783 15.8588 15.2991 16.0857 7.88672 16.7995C7.2356 22.426 6.95244 28.1215 7.04515 33.7381C7.05253 34.181 6.69943 34.546 6.25651 34.5533C5.81487 34.5557 5.44862 34.2075 5.44135 33.7646C5.34393 27.8624 5.6564 21.8748 6.36986 15.9683C6.41488 15.5955 6.71248 15.3039 7.08611 15.2665C14.7616 14.4978 22.51 14.2473 30.2334 14.5133L31.8374 14.5753C35.0534 14.716 38.2639 14.9463 41.4617 15.2665C41.8354 15.3039 42.133 15.5955 42.1781 15.9683C42.2886 16.8831 42.3883 17.8001 42.4795 18.7183C44.988 17.7515 47.484 17.5737 49.4586 18.2434Z" fill="#626262"/>
<path d="M23.5492 9.65002C22.9774 10.1313 22.1943 10.7905 22.1943 12.0638C22.1943 12.5068 22.5534 12.8659 22.9963 12.8659C23.4392 12.8659 23.7983 12.5068 23.7983 12.0638C23.7983 11.5593 24.0527 11.3228 24.5822 10.8772C25.1539 10.3959 25.937 9.73674 25.937 8.46337C25.937 7.18999 25.1539 6.53085 24.5822 6.04954C24.0528 5.60394 23.7983 5.3674 23.7983 4.86289C23.7983 4.35859 24.0527 4.12205 24.5822 3.67656C25.1539 3.19535 25.937 2.53621 25.937 1.26294C25.937 0.820023 25.5779 0.460938 25.135 0.460938C24.6921 0.460938 24.333 0.820023 24.333 1.26294C24.333 1.76725 24.0786 2.00379 23.5492 2.44927C22.9774 2.93048 22.1943 3.58962 22.1943 4.86289C22.1943 6.13626 22.9774 6.7954 23.5492 7.27672C24.0785 7.72231 24.333 7.95885 24.333 8.46337C24.333 8.96788 24.0785 9.20442 23.5492 9.65002V9.65002Z" fill="#C4C4C4"/>
<path fill-rule="evenodd" clip-rule="evenodd" d="M31.8296 16.1486L31.8295 14.0222C31.8295 13.5793 31.4705 13.2202 31.0274 13.2202C30.5844 13.2202 30.2254 13.5793 30.2254 14.0222L30.2256 16.0851V26.0367C29.2897 26.0673 28.3548 26.1507 27.4252 26.2884C27.0563 26.3431 26.7737 26.6449 26.7434 27.0166C26.4855 30.1745 26.4855 33.377 26.7434 36.535C26.7738 36.9067 27.0563 37.2084 27.4252 37.2631C28.6204 37.4402 29.824 37.5287 31.0276 37.5287C32.2311 37.5287 33.4349 37.4402 34.63 37.2631C34.9988 37.2085 35.2814 36.9067 35.3118 36.535C35.5696 33.377 35.5696 30.1746 35.3118 27.0166C35.2814 26.6449 34.9988 26.3432 34.63 26.2884C33.7002 26.1507 32.7655 26.0673 31.8296 26.0367V16.1486ZM33.748 35.8047C31.9307 36.0227 30.0966 36.0227 28.2792 35.8047C28.0936 33.157 28.0936 30.4816 28.2792 27.8339C30.0967 27.6159 31.9305 27.6159 33.748 27.8339C33.9337 30.4816 33.9337 33.1572 33.748 35.8047Z" fill="#48A300"/>
</g>
<defs>
<clipPath id="clip0_16_948">
<rect width="54" height="54" fill="white"/>
</clipPath>
</defs>
</svg>
