<svg width="54" height="54" viewBox="0 0 54 54" fill="none" xmlns="http://www.w3.org/2000/svg">
<g clip-path="url(#clip0_208_139)">
<path d="M9.98335 50.7477H2.20335C1.90624 50.7477 1.74519 50.5574 1.68971 50.4755C1.63434 50.394 1.51748 50.1744 1.62717 49.8993L3.12746 46.134H7.89191C8.32876 46.134 8.68293 45.78 8.68293 45.343C8.68293 44.9061 8.32876 44.552 7.89191 44.552H3.75775L6.44625 37.8046C7.02506 36.3491 7.31858 34.8179 7.31858 33.2536V24.401C7.62318 24.9531 8.19028 25.3001 8.82847 25.3157C8.84345 25.3161 8.85843 25.3163 8.8734 25.3163C9.53838 25.3163 10.1384 24.9533 10.4471 24.3609L16.6985 12.3635C17.0141 11.7578 16.9586 11.0397 16.5538 10.4897C16.1488 9.93969 15.48 9.67348 14.8077 9.79477L9.3151 10.7868C8.52873 10.9127 7.67074 11.5728 7.31848 12.3905V3.87207C7.31848 3.53077 7.5967 3.25297 7.93863 3.25297H31.8464L27.1835 7.28388C26.5642 7.81913 26.2091 8.59559 26.2091 9.41414V12.2029C25.0711 12.5439 24.2392 13.6003 24.2392 14.8477V17.9874C24.2392 19.5097 25.4778 20.7482 27.0001 20.7482C28.5224 20.7482 29.761 19.5097 29.761 17.9874V14.8477C29.761 13.6003 28.9291 12.5439 27.7911 12.2029V9.41414C27.7911 9.05554 27.9468 8.71519 28.2181 8.48063L34.4732 3.07346C34.99 2.67468 34.7858 1.66376 33.9496 1.67094H7.93874C6.72448 1.67094 5.73655 2.65833 5.73655 3.87207V13.0699L3.06629 11.3921L1.24411 10.1191C0.886148 9.86902 0.392871 9.95646 0.142593 10.3146C-0.107578 10.6728 -0.0200394 11.1659 0.338132 11.416L1.83832 12.4641V45.0953L0.15757 49.3135C-0.112957 49.9923 -0.0297425 50.7584 0.380214 51.3633C0.790488 51.9683 1.47203 52.3297 2.20335 52.3297H9.98346C10.4203 52.3297 10.7745 51.9756 10.7745 51.5387C10.7745 51.1017 10.4203 50.7477 9.98335 50.7477ZM28.1789 14.8477V17.9874C28.1789 18.6374 27.6501 19.1662 27.0001 19.1662C26.3501 19.1662 25.8213 18.6374 25.8213 17.9874V14.8477C25.8213 14.1977 26.3501 13.6689 27.0001 13.6689C27.6501 13.6689 28.1789 14.1977 28.1789 14.8477ZM8.83491 12.9042C8.9872 12.6119 9.27186 12.4023 9.59628 12.3438L15.089 11.3518C15.1872 11.334 15.2472 11.3832 15.2799 11.4277C15.3126 11.4721 15.3419 11.5439 15.2956 11.6325L9.04416 23.6297C8.99796 23.7184 8.92065 23.7327 8.86728 23.734C8.81212 23.7327 8.73756 23.712 8.69569 23.6212L6.36187 18.551C6.22403 18.2515 6.23268 17.8981 6.38497 17.6058L7.21934 16.0046C7.22292 15.9981 7.22619 15.9915 7.22957 15.9849L8.83491 12.9042ZM3.42035 13.483L5.73655 14.9383V15.4266L4.98203 16.8747C4.60529 17.5978 4.58388 18.4718 4.92486 19.2124L5.73666 20.9759V33.2534C5.73666 34.6167 5.48079 35.9512 4.97644 37.2195L3.42035 41.1248V13.483Z" fill="#626262"/>
<path d="M52.1619 45.0952V12.464L53.6621 11.416C54.0202 11.1658 54.1078 10.6727 53.8576 10.3146C53.6073 9.95642 53.1143 9.86899 52.7562 10.1191L50.934 11.392L48.2638 13.0698V3.87203C48.2638 2.6583 47.2758 1.6709 46.0616 1.6709H37.6723C37.2354 1.6709 36.8813 2.02496 36.8813 2.46191C36.8813 2.89887 37.2354 3.25293 37.6723 3.25293H46.0616C46.4035 3.25293 46.6817 3.53073 46.6817 3.87203V12.3905C46.3751 11.6559 45.5697 10.9443 44.6852 10.7869L39.1925 9.79484C38.5204 9.67366 37.8514 9.93975 37.4464 10.4898C37.0416 11.0398 36.9861 11.7577 37.3017 12.3635L43.5531 24.3609C43.8618 24.9533 44.4618 25.3164 45.1268 25.3164C45.1418 25.3164 45.1568 25.3162 45.1717 25.3157C45.8099 25.3001 46.3771 24.9531 46.6816 24.4011V33.2536C46.6816 34.8179 46.9751 36.3491 47.5542 37.8052L50.2425 44.5521H46.1084C45.6716 44.5521 45.3174 44.9061 45.3174 45.3431C45.3174 45.78 45.6716 46.1341 46.1084 46.1341H50.8729L52.3731 49.8994C52.4827 50.1744 52.3659 50.394 52.3105 50.4756C52.255 50.5575 52.094 50.7477 51.7969 50.7477H30.8822L29.6794 44.3816V41.4699H31.564C32.5336 41.4699 33.3224 40.6811 33.3224 39.7114V31.5796C33.3224 30.6099 32.5336 29.821 31.564 29.821H27.2373C26.2676 29.821 25.4788 30.6098 25.4788 31.5796V33.1492H22.4362C21.4666 33.1492 20.6777 33.938 20.6777 34.9077V39.7114C20.6777 40.6809 21.4665 41.4699 22.4362 41.4699H24.3208V44.3816L23.118 50.7477H13.6907C13.2538 50.7477 12.8997 51.1018 12.8997 51.5387C12.8997 51.9757 13.2538 52.3298 13.6907 52.3298H51.7969C52.5282 52.3298 53.2097 51.9684 53.62 51.3633C54.03 50.7586 54.1133 49.9924 53.8427 49.3137L52.1619 45.0952ZM45.3044 23.6212C45.2627 23.712 45.188 23.7327 45.1328 23.734C45.079 23.7324 45.0021 23.7184 44.9559 23.6297L38.7046 11.6323C38.6584 11.5436 38.6876 11.4719 38.7203 11.4276C38.7484 11.3895 38.7962 11.348 38.8711 11.348C38.8837 11.348 38.8971 11.3491 38.9112 11.3517L44.4039 12.3437C44.7284 12.4022 45.0129 12.6118 45.1653 12.9041L46.7706 15.9848C46.774 15.9913 46.7773 15.998 46.7809 16.0044L47.6152 17.6056C47.7675 17.8979 47.7762 18.2513 47.6383 18.5509L45.3044 23.6212ZM48.2637 33.2535V20.976L49.0755 19.2125C49.4163 18.4719 49.395 17.5978 49.0183 16.8747L48.2638 15.4267V14.9383L50.58 13.4831V41.1249L49.0242 37.2202C48.5194 35.9513 48.2637 34.6168 48.2637 33.2535ZM27.0608 31.5796C27.0608 31.4823 27.1399 31.4031 27.2372 31.4031H31.564C31.6613 31.4031 31.7404 31.4823 31.7404 31.5796V33.1492H27.0606V31.5796H27.0608ZM22.2596 39.7113V34.9076C22.2596 34.8102 22.3387 34.7311 22.4361 34.7311H31.7405V39.7113C31.7405 39.8086 31.6614 39.8877 31.5641 39.8877H22.4362C22.3388 39.8877 22.2596 39.8086 22.2596 39.7113ZM28.0975 41.4697V43.6647H25.9027V41.4697H28.0975ZM25.7673 45.2467H28.2329L29.2722 50.7476H24.728L25.7673 45.2467Z" fill="#626262"/>
<path d="M26.6263 38.5172C26.8287 38.5172 27.0311 38.44 27.1856 38.2856L27.9671 37.5042C28.276 37.1952 28.2761 36.6944 27.9672 36.3856C27.6583 36.0766 27.1575 36.0765 26.8486 36.3854L26.0671 37.1669C25.7582 37.4758 25.7581 37.9767 26.067 38.2855C26.2214 38.44 26.4239 38.5172 26.6263 38.5172Z" fill="#626262"/>
<line x1="17.4929" y1="16.5726" x2="22.1493" y2="16.5072" stroke="#FFE600" stroke-linecap="round"/>
<line x1="0.5" y1="-0.5" x2="5.15685" y2="-0.5" transform="matrix(-0.999901 -0.0140521 -0.0140521 0.999901 37.6563 17.0796)" stroke="#FFE600" stroke-linecap="round"/>
<line x1="16.6556" y1="20.735" x2="20.9426" y2="22.5537" stroke="#FFE600" stroke-linecap="round"/>
<line x1="0.5" y1="-0.5" x2="5.15685" y2="-0.5" transform="matrix(-0.920582 0.39055 0.39055 0.920582 38.6563 21)" stroke="#FFE600" stroke-linecap="round"/>
<line x1="13.7044" y1="23.0623" x2="16.6943" y2="26.6326" stroke="#FFE600" stroke-linecap="round"/>
<line x1="0.5" y1="-0.5" x2="5.15685" y2="-0.5" transform="matrix(-0.642043 0.766669 0.766669 0.642043 41.6563 23)" stroke="#FFE600" stroke-linecap="round"/>
</g>
<defs>
<clipPath id="clip0_208_139">
<rect width="54" height="54" fill="white"/>
</clipPath>
</defs>
</svg>
