<svg width="72" height="58" viewBox="0 0 72 58" fill="none" xmlns="http://www.w3.org/2000/svg">
<path d="M2.43313 48.3316H9.52946C13.2885 48.3325 16.894 46.8398 19.5519 44.1814C22.2099 41.5234 23.7031 37.9179 23.7022 34.1589V30.6012C23.6929 27.3533 24.9834 24.2364 27.286 21.9457L28.2605 20.9721C28.6477 21.1615 29.0721 21.2607 29.5027 21.262V39.3584L19.0094 56.529C18.7315 56.9848 18.8757 57.5801 19.3316 57.8584C19.7874 58.1364 20.3826 57.9925 20.661 57.5363L25.1042 50.2651H35.8352L40.2824 57.5363C40.4626 57.8315 40.7861 58.008 41.1313 57.9996C41.4769 57.9912 41.7915 57.7991 41.9571 57.496C42.1226 57.1924 42.1137 56.8242 41.9336 56.529L31.4363 39.3584V21.262H33.3702V22.1891C33.3742 24.3431 34.4 26.3668 36.1348 27.6427L48.2661 36.5371L48.2842 36.5469C48.2922 36.5469 48.298 36.5593 48.3055 36.565C48.3564 36.5947 48.4099 36.6195 48.4652 36.6398C48.494 36.6513 48.5214 36.6695 48.5511 36.6792C48.7706 36.7496 49.0078 36.7381 49.2193 36.6465L55.9864 33.746C56.001 33.7402 56.0116 33.7287 56.0254 33.7221C56.0758 33.6973 56.1236 33.6676 56.1683 33.634C56.1971 33.6145 56.225 33.5933 56.2515 33.5712C56.2887 33.5349 56.3232 33.4964 56.3551 33.4552C56.3807 33.4242 56.4042 33.3919 56.4254 33.3583C56.4325 33.3503 56.4392 33.3419 56.4449 33.3335C56.4546 33.3158 56.4546 33.2968 56.4631 33.2782C56.5029 33.1985 56.5312 33.1136 56.5476 33.0259C56.5533 32.991 56.56 32.9573 56.5626 32.9215C56.5657 32.8856 56.5724 32.8865 56.5724 32.8635V3.86039C56.5724 3.83693 56.564 3.81569 56.5626 3.79268C56.5617 3.76922 56.5533 3.7232 56.5476 3.68823C56.5312 3.60061 56.5029 3.51564 56.4631 3.43598C56.4546 3.41739 56.4546 3.39836 56.4449 3.38066C56.4352 3.3634 56.4334 3.36915 56.4285 3.36251C56.3701 3.26471 56.2949 3.17841 56.2059 3.10716C56.1829 3.08902 56.1568 3.0784 56.1325 3.06158C56.0869 3.0275 56.0378 2.99741 55.9864 2.97174L49.2193 0.0716935C49.1862 0.0579744 49.1525 0.0531063 49.1224 0.0424851C49.091 0.0314213 49.0587 0.0221276 49.026 0.0146042C48.972 0.00486808 48.9171 0 48.8627 0C48.8357 0 48.8095 0 48.7821 0C48.7144 0.00531063 48.6471 0.0181446 48.5821 0.0376169C48.5675 0.0376169 48.5533 0.0376169 48.5396 0.046468C48.459 0.0725786 48.3825 0.109311 48.3112 0.155779L36.3836 8.10137C34.4987 9.35468 33.3671 11.4688 33.3702 13.732V14.4949H29.5027C27.9011 14.4949 26.6027 15.7934 26.6027 17.395V18.362C26.6045 18.7926 26.7036 19.2174 26.8926 19.6042L25.9181 20.5787C23.2521 23.2314 21.7581 26.8404 21.7687 30.6012V34.1589C21.7696 37.4054 20.4804 40.5188 18.1849 42.8143C15.8894 45.1098 12.7756 46.399 9.52946 46.3981H2.43313C1.89941 46.3981 1.46659 46.8309 1.46659 47.3651C1.46659 47.8988 1.89941 48.3316 2.43313 48.3316V48.3316ZM26.2854 48.3316L30.4697 41.4853L34.6541 48.3316H26.2854ZM54.6388 31.1977L49.8053 28.4358V8.28813L54.6388 5.52615V31.1977ZM49.8053 6.06164V2.42652L53.4413 3.98386L49.8053 6.06164ZM49.8053 30.6623L53.4413 32.7396L49.8053 34.2974V30.6623ZM35.3037 13.732C35.3015 12.1153 36.1101 10.6053 37.4567 9.71005L47.8718 2.76684V33.8553L37.2788 26.0872C36.0388 25.175 35.3059 23.7283 35.3037 22.1891V13.732ZM28.5362 17.395C28.5362 16.8613 28.969 16.4284 29.5027 16.4284H33.3702V19.3285H29.5027C29.2496 19.3294 29.0066 19.2298 28.8261 19.0523V19.0386L28.8155 19.032C28.6389 18.8532 28.5389 18.6129 28.5362 18.362V17.395Z" fill="#626262"/>
<line x1="60" y1="19" x2="70" y2="19" stroke="#FFE600" stroke-width="2" stroke-linecap="round"/>
<line x1="59.4927" y1="11.6724" x2="68.5841" y2="7.50758" stroke="#FFE600" stroke-width="2" stroke-linecap="round"/>
<line x1="60.4545" y1="26.3065" x2="70.0845" y2="29.0017" stroke="#FFE600" stroke-width="2" stroke-linecap="round"/>
</svg>
