<svg width="64" height="64" viewBox="0 0 64 64" fill="none" xmlns="http://www.w3.org/2000/svg">
<path d="M57.6889 5.95557H6.31111C4.26667 5.95557 2.66667 7.55557 2.66667 9.51112V42.8445C2.66667 44.8 4.26667 46.4889 6.31111 46.4889H57.7778C59.7333 46.4889 61.4222 44.8889 61.4222 42.8445V9.51112C61.3333 7.55557 59.7333 5.95557 57.6889 5.95557V5.95557ZM59.5556 42.8445C59.5556 43.8222 58.7556 44.7111 57.6889 44.7111H6.31111C5.33333 44.7111 4.44444 43.9111 4.44444 42.8445V9.51112C4.44444 8.53334 5.24444 7.64446 6.31111 7.64446H57.7778C58.7556 7.64446 59.6444 8.44446 59.6444 9.51112V42.8445H59.5556Z" fill="#626262"/>
<path d="M32 11.4668C23.9111 11.4668 17.3333 18.0446 17.3333 26.2224C17.3333 34.3112 23.9111 40.889 32 40.889C40.0889 40.889 46.6667 34.3112 46.6667 26.2224C46.6667 18.0446 40.0889 11.4668 32 11.4668ZM32 39.1112C24.8889 39.1112 19.1111 33.3335 19.1111 26.2224C19.1111 19.1112 24.8889 13.2446 32 13.2446C39.1111 13.2446 44.8889 19.0224 44.8889 26.2224C44.8889 33.3335 39.1111 39.1112 32 39.1112Z" fill="#CBCBCB"/>
<path d="M37.4222 23.9999L30.0444 19.5555C28.3556 18.5777 26.2222 19.7332 26.2222 21.7777V30.6666C26.2222 32.6221 28.3556 33.8666 30.0444 32.8888L37.4222 28.4444C39.1111 27.3777 39.1111 24.9777 37.4222 23.9999ZM36.5333 26.8444L29.1556 31.2888C28.6222 31.5555 28 31.1999 28 30.6666V21.7777C28 21.1555 28.6222 20.7999 29.1556 21.1555L36.5333 25.5999C36.8889 25.7777 36.8889 26.1332 36.8889 26.2221C36.8889 26.311 36.8 26.6666 36.5333 26.8444Z" fill="#E73F3F"/>
<path d="M60.4444 53.778H17.8667C17.4222 52.2669 15.7333 51.2002 13.6889 51.2002C11.6444 51.2002 10.0444 52.2669 9.6 53.778H4.35555C3.82222 53.778 3.46667 54.1335 3.46667 54.6669C3.46667 55.2002 3.82222 55.5558 4.35555 55.5558H9.6C10.1333 57.0669 11.7333 58.1335 13.6889 58.1335C15.6444 58.1335 17.3333 57.0669 17.8667 55.5558H60.4444C60.9778 55.5558 61.3333 55.2002 61.3333 54.6669C61.3333 54.1335 60.9778 53.778 60.4444 53.778ZM13.6889 56.2669C12.3556 56.2669 11.2 55.4669 11.2 54.578C11.2 53.6891 12.3556 52.8891 13.6889 52.8891C15.0222 52.8891 16.1778 53.6891 16.1778 54.578C16.1778 55.5558 15.0222 56.2669 13.6889 56.2669Z" fill="#626262"/>
</svg>
