<svg width="51" height="26" viewBox="0 0 51 26" fill="none" xmlns="http://www.w3.org/2000/svg">
<path d="M46.7396 23.0169H30.0729C29.7966 23.0169 29.5317 22.9072 29.3363 22.7118C29.141 22.5165 29.0312 22.2515 29.0312 21.9753V3.22526C29.0312 2.94899 29.141 2.68404 29.3363 2.48869C29.5317 2.29334 29.7966 2.18359 30.0729 2.18359H46.7396C47.0159 2.18359 47.2808 2.29334 47.4762 2.48869C47.6715 2.68404 47.7812 2.94899 47.7812 3.22526V21.9753C47.7812 22.2515 47.6715 22.5165 47.4762 22.7118C47.2808 22.9072 47.0159 23.0169 46.7396 23.0169ZM34.2396 7.39193V9.47526H42.5729V7.39193H34.2396ZM34.2396 11.5586V13.6419H42.5729V11.5586H34.2396ZM34.2396 15.7253V17.8086H39.4479V15.7253H34.2396Z" fill="#6E4DDC"/>
<g clip-path="url(#clip0_0_1)">
<path d="M4.24395 22.7C4.04395 22.7 3.84395 22.6 3.74395 22.5C3.64395 22.4 3.54395 22.2 3.54395 22V3.2C3.54395 3 3.64395 2.8 3.74395 2.7C3.84395 2.6 4.04395 2.5 4.24395 2.5H20.9439C21.1439 2.5 21.3439 2.6 21.4439 2.7C21.5439 2.8 21.6439 3 21.6439 3.2V22C21.6439 22.2 21.5439 22.4 21.4439 22.5C21.3439 22.6 21.1439 22.7 20.9439 22.7H4.24395ZM5.34395 4C5.14395 4 5.04395 4.1 5.04395 4.3V21C5.04395 21.2 5.14395 21.3 5.34395 21.3H19.9439C20.1439 21.3 20.2439 21.2 20.2439 21V4.3C20.2439 4.1 20.1439 4 19.9439 4H5.34395ZM8.74394 17.5V16H13.3439V17.5H8.74394ZM8.74394 13.3V11.8H16.4439V13.3H8.74394ZM8.74394 9.2V7.7H16.4439V9.2H8.74394Z" fill="#CDCDCD"/>
</g>
<defs>
<clipPath id="clip0_0_1">
<rect width="25" height="25" fill="white" transform="translate(0.09375 0.100098)"/>
</clipPath>
</defs>
</svg>
