<svg width="24" height="25" viewBox="0 0 24 25" fill="none" xmlns="http://www.w3.org/2000/svg">
<path fill-rule="evenodd" clip-rule="evenodd" d="M8.00447 3.47266C9.48468 3.4727 10.9109 4.02876 12.0005 5.03066C13.0902 4.02893 14.5163 3.4729 15.9965 3.47266C16.779 3.47326 17.5537 3.62853 18.276 3.92954C18.9984 4.23055 19.6541 4.67137 20.2055 5.22666C22.5615 7.59366 22.5615 11.2887 20.2075 13.6427L12.7925 21.0577C12.7016 21.183 12.5827 21.2853 12.4451 21.3563C12.3076 21.4274 12.1553 21.4652 12.0005 21.4667C11.6235 21.4667 11.2955 21.2737 11.1255 20.9747L3.79347 13.6427C1.43947 11.2897 1.43847 7.59366 3.79147 5.23066C4.34313 4.67435 4.99937 4.23263 5.72241 3.93092C6.44544 3.62922 7.22101 3.47347 8.00447 3.47266Z" fill="#6E4DDC"/>
</svg>
