<svg width="32" height="33" viewBox="0 0 32 33" fill="none" xmlns="http://www.w3.org/2000/svg">
<path fill-rule="evenodd" clip-rule="evenodd" d="M15.2134 8.83442C15.4642 8.73056 15.7329 8.6771 16.0043 8.6771C16.2757 8.6771 16.5444 8.73056 16.7952 8.83442C17.0459 8.93828 17.2737 9.0905 17.4656 9.28241C17.6576 9.47432 17.8098 9.70215 17.9136 9.95289C18.0175 10.2036 18.071 10.4724 18.071 10.7438V10.9438H13.9376V10.7438C13.9376 10.4724 13.9911 10.2036 14.0949 9.95289C14.1988 9.70215 14.351 9.47432 14.5429 9.28241C14.7348 9.0905 14.9627 8.93828 15.2134 8.83442ZM13.7376 10.9438H13.7368V10.7437C13.7368 10.4461 13.7955 10.1513 13.9094 9.8763C14.0233 9.6013 14.1903 9.35142 14.4007 9.14094C14.6112 8.93046 14.8611 8.7635 15.1361 8.64959C15.4111 8.53568 15.7059 8.47705 16.0035 8.47705C16.0513 8.47705 16.099 8.47856 16.1466 8.48157C16.0993 8.4786 16.0518 8.4771 16.0043 8.4771C15.7066 8.4771 15.4119 8.53573 15.1369 8.64964C14.8619 8.76355 14.612 8.93051 14.4015 9.14099C14.191 9.35147 14.0241 9.60135 13.9102 9.87635C13.7963 10.1514 13.7376 10.4461 13.7376 10.7438V10.9438ZM18.071 13.1438V13.1438H13.9376V13.1438H18.071ZM13.9376 13.3438H18.071V14.0104C18.071 14.6732 18.6082 15.2104 19.271 15.2104C19.9337 15.2104 20.471 14.6732 20.471 14.0104V13.3438H22.2678V24.9438H9.7345V13.3438H11.5376V14.0104C11.5376 14.6732 12.0749 15.2104 12.7376 15.2104C13.4004 15.2104 13.9376 14.6732 13.9376 14.0104V13.3438ZM13.7376 13.1438H13.7368V13.1438H13.7376V13.1438ZM13.7376 13.3438V14.0104C13.7376 14.5627 13.2899 15.0104 12.7376 15.0104C12.717 15.0104 12.6965 15.0098 12.6762 15.0086C12.6963 15.0098 12.7165 15.0104 12.7368 15.0104C13.2891 15.0104 13.7368 14.5627 13.7368 14.0104V13.3438H13.7376ZM11.5376 13.1438V13.1438H9.5345V25.1438H9.53372V13.1438H11.5376ZM16.2726 6.48554C16.7408 6.51513 17.2017 6.6218 17.6363 6.80183C18.154 7.01625 18.6243 7.33053 19.0205 7.72673C19.4167 8.12293 19.731 8.59328 19.9454 9.11094C20.1598 9.62859 20.2702 10.1834 20.2702 10.7437V10.9438H20.271V10.7438C20.271 10.1835 20.1606 9.62864 19.9462 9.11098C19.7318 8.59333 19.4175 8.12297 19.0213 7.72678C18.6251 7.33058 18.1547 7.0163 17.6371 6.80188C17.2022 6.62175 16.7411 6.51506 16.2726 6.48554ZM20.471 10.9438V10.7438C20.471 10.1572 20.3554 9.57637 20.131 9.03445C19.9065 8.49253 19.5775 8.00012 19.1627 7.58536C18.7479 7.17059 18.2555 6.84158 17.7136 6.6171C17.1717 6.39263 16.5909 6.2771 16.0043 6.2771C15.4177 6.2771 14.8369 6.39263 14.295 6.6171C13.7531 6.84158 13.2607 7.17059 12.8459 7.58536C12.4311 8.00012 12.1021 8.49253 11.8776 9.03445C11.6532 9.57637 11.5376 10.1572 11.5376 10.7438V10.9438H9.46784C8.90204 10.9438 8.35942 11.1686 7.95934 11.5687C7.55927 11.9688 7.3345 12.5114 7.3345 13.0772V25.2105C7.3345 25.7763 7.55926 26.3189 7.95934 26.719C8.35942 27.1191 8.90204 27.3438 9.46784 27.3438H22.5345C23.1003 27.3438 23.6429 27.1191 24.043 26.719C24.4431 26.3189 24.6678 25.7763 24.6678 25.2105V13.0772C24.6678 12.5114 24.4431 11.9688 24.043 11.5687C23.6429 11.1686 23.1003 10.9438 22.5345 10.9438H20.471ZM20.271 13.1438H20.2702V13.1438H20.271V13.1438ZM20.471 13.1438V13.1438H22.4671V13.1438H20.471ZM20.271 13.3438H20.2702V14.0104C20.2702 14.5627 19.8225 15.0104 19.2702 15.0104C19.2498 15.0104 19.2296 15.0098 19.2095 15.0086C19.2299 15.0098 19.2503 15.0104 19.271 15.0104C19.8232 15.0104 20.271 14.5627 20.271 14.0104V13.3438ZM9.37197 27.1415C9.40382 27.1431 9.43579 27.1438 9.46784 27.1438H22.5345C23.0472 27.1438 23.539 26.9402 23.9016 26.5776C24.2641 26.215 24.4678 25.7233 24.4678 25.2105V13.0772C24.4678 12.5644 24.2641 12.0727 23.9016 11.7101C23.5679 11.3765 23.1249 11.1774 22.6568 11.1477C23.1246 11.1775 23.5674 11.3766 23.9008 11.7101C24.2634 12.0726 24.4671 12.5644 24.4671 13.0771V25.2105C24.4671 25.7232 24.2634 26.215 23.9008 26.5775C23.5382 26.9401 23.0465 27.1438 22.5337 27.1438H9.46706C9.43527 27.1438 9.40357 27.143 9.37197 27.1415Z" fill="#404040"/>
</svg>
