<svg width="20" height="21" viewBox="0 0 20 21" fill="none" xmlns="http://www.w3.org/2000/svg">
<g clip-path="url(#clip0_30_6444)">
<path d="M9.09986 2.89024C9.19157 2.73288 9.32293 2.6023 9.48085 2.51155C9.63877 2.4208 9.81773 2.37305 9.99986 2.37305C10.182 2.37305 10.361 2.4208 10.5189 2.51155C10.6768 2.6023 10.8082 2.73288 10.8999 2.89024L13.229 6.88858L17.7524 7.86858C17.9303 7.90724 18.095 7.99187 18.23 8.11402C18.365 8.23617 18.4657 8.39158 18.5219 8.56476C18.5781 8.73794 18.588 8.92283 18.5505 9.10101C18.513 9.27919 18.4295 9.44442 18.3082 9.58024L15.2249 13.0311L15.6915 17.6352C15.7099 17.8165 15.6805 17.9995 15.6061 18.1658C15.5316 18.3322 15.4149 18.4761 15.2675 18.5832C15.12 18.6903 14.9471 18.7569 14.7659 18.7762C14.5847 18.7956 14.4016 18.7671 14.2349 18.6936L9.99986 16.8269L5.76487 18.6936C5.59813 18.7671 5.41502 18.7956 5.23383 18.7762C5.05263 18.7569 4.87968 18.6903 4.73226 18.5832C4.58483 18.4761 4.46808 18.3322 4.39367 18.1658C4.31926 17.9995 4.28979 17.8165 4.3082 17.6352L4.77487 13.0311L1.69153 9.58108C1.57006 9.44526 1.48633 9.27996 1.44871 9.10168C1.41109 8.92339 1.4209 8.73835 1.47715 8.56504C1.5334 8.39173 1.63414 8.2362 1.76929 8.11399C1.90444 7.99178 2.06928 7.90716 2.24737 7.86858L6.7707 6.88858L9.09986 2.89024Z" fill="#E9EAEB"/>
</g>
<defs>
<clipPath id="clip0_30_6444">
<rect width="20" height="20" fill="white" transform="translate(0 0.5)"/>
</clipPath>
</defs>
</svg>
