<svg width="35" height="36" viewBox="0 0 35 36" fill="none" xmlns="http://www.w3.org/2000/svg">
<g clip-path="url(#clip0_30_6549)">
<path d="M15.9254 4.48273C16.0859 4.20734 16.3157 3.97884 16.5921 3.82002C16.8685 3.66121 17.1816 3.57764 17.5004 3.57764C17.8191 3.57764 18.1323 3.66121 18.4086 3.82002C18.685 3.97884 18.9149 4.20734 19.0754 4.48273L23.1514 11.4798L31.0672 13.1948C31.3786 13.2625 31.6668 13.4106 31.9031 13.6243C32.1394 13.8381 32.3155 14.1101 32.414 14.4131C32.5124 14.7162 32.5296 15.0398 32.464 15.3516C32.3984 15.6634 32.2522 15.9525 32.04 16.1902L26.6441 22.2292L27.4608 30.2865C27.493 30.6037 27.4414 30.9239 27.3112 31.215C27.181 31.5061 26.9767 31.758 26.7187 31.9454C26.4607 32.1329 26.158 32.2493 25.8409 32.2832C25.5238 32.3171 25.2034 32.2672 24.9116 32.1386L17.5004 28.8719L10.0891 32.1386C9.79734 32.2672 9.4769 32.3171 9.15981 32.2832C8.84271 32.2493 8.54006 32.1329 8.28206 31.9454C8.02407 31.758 7.81976 31.5061 7.68954 31.215C7.55932 30.9239 7.50774 30.6037 7.53996 30.2865L8.35663 22.2292L2.96079 16.1917C2.74821 15.954 2.60169 15.6647 2.53585 15.3527C2.47002 15.0407 2.48718 14.7169 2.58563 14.4136C2.68407 14.1103 2.86035 13.8382 3.09686 13.6243C3.33338 13.4104 3.62186 13.2623 3.9335 13.1948L11.8493 11.4798L15.9254 4.48273Z" fill="#FFCC49"/>
</g>
<defs>
<clipPath id="clip0_30_6549">
<rect width="35" height="35" fill="white" transform="translate(0 0.435547)"/>
</clipPath>
</defs>
</svg>
