<svg width="46" height="46" viewBox="0 0 46 46" fill="none" xmlns="http://www.w3.org/2000/svg">
<g clip-path="url(#clip0_45_7908)">
<rect x="0.5" y="0.810547" width="45" height="45" rx="10" fill="#C5B8F1"/>
<path d="M34.443 11.4688C33.8096 11.8538 33.0179 11.8507 32.3876 11.4657L31.3226 10.8105L31.9809 11.8693C32.3658 12.5027 32.3627 13.2944 31.9777 13.9247L31.3226 14.9927L32.3814 14.3345C33.0148 13.9495 33.8065 13.9526 34.4368 14.3376L35.5048 14.9927L34.8466 13.934C34.4616 13.3006 34.4647 12.5089 34.8497 11.8786L35.5048 10.8105L34.443 11.4688Z" fill="white"/>
<path d="M14.8864 29.1818C13.8525 27.7039 13.2408 25.9094 13.2408 23.9719C13.2408 18.9546 17.3236 14.8717 22.341 14.8717C24.2629 14.8717 26.0451 15.4741 27.5168 16.4955L27.9204 16.2347C26.3494 15.0984 24.4213 14.4277 22.341 14.4277C17.0784 14.4277 12.7968 18.7093 12.7968 23.9719C12.7968 26.077 13.483 28.0237 14.6411 29.6041L14.8864 29.1818Z" fill="white"/>
<path d="M30.0286 18.3303L29.7678 18.7308C30.8173 20.2149 31.4382 22.022 31.4382 23.9718C31.4382 28.9892 27.3554 33.072 22.338 33.072C20.295 33.072 18.4042 32.3952 16.8859 31.2526L16.4668 31.4885C18.0875 32.7584 20.1243 33.516 22.338 33.516C27.6007 33.516 31.8822 29.2344 31.8822 23.9718C31.8822 21.8636 31.1929 19.9107 30.0286 18.3303Z" fill="white"/>
<path d="M23.8529 22.4536C22.9307 21.5314 21.4373 21.5314 20.5152 22.4536C19.5931 23.3757 13.5294 32.5815 13.5294 32.5815C13.5294 32.5815 22.9307 26.7134 23.8529 25.7912C24.775 24.8722 24.775 23.3757 23.8529 22.4536ZM22.3439 25.2852C21.6174 25.2852 21.0275 24.6952 21.0275 23.9687C21.0275 23.2422 21.6174 22.6523 22.3439 22.6523C23.0705 22.6523 23.6604 23.2422 23.6604 23.9687C23.6604 24.6952 23.0705 25.2852 22.3439 25.2852Z" fill="white"/>
<path d="M31.3139 16.3403L30.783 17.1599C32.295 19.029 33.2016 21.4073 33.2016 23.9936C33.2016 29.9952 28.3178 34.8791 22.3161 34.8791C19.913 34.8791 17.6372 34.1122 15.7277 32.6592L15.5042 32.4884L12.2721 33.9694L13.5699 30.4765L13.427 30.2747C12.1199 28.4273 11.4275 26.2539 11.4275 23.9905C11.4275 17.9889 16.3114 13.105 22.313 13.105C24.8714 13.105 27.2218 13.9961 29.0815 15.4771L29.9043 14.9462C27.8489 13.2168 25.2036 12.1736 22.313 12.1736C15.796 12.1736 10.4961 17.4735 10.4961 23.9905C10.4961 26.3657 11.1978 28.6478 12.5266 30.61L10.6172 35.7516L15.3893 33.5658C17.4136 35.0344 19.8012 35.8106 22.3161 35.8106C28.8332 35.8106 34.1331 30.5106 34.1331 23.9936C34.1362 21.0751 33.0712 18.405 31.3139 16.3403Z" fill="white"/>
<path d="M20.6732 22.2983C19.751 23.2204 19.751 24.7138 20.6732 25.636C21.5953 26.5581 23.0887 26.5581 24.0108 25.636C24.933 24.7138 30.9191 15.387 30.9191 15.387C30.9191 15.387 21.5953 21.3762 20.6732 22.2983ZM22.3436 25.2851C21.617 25.2851 21.0271 24.6952 21.0271 23.9687C21.0271 23.2422 21.617 22.6522 22.3436 22.6522C23.0701 22.6522 23.66 23.2422 23.66 23.9687C23.66 24.6952 23.0701 25.2851 22.3436 25.2851Z" fill="white"/>
</g>
<defs>
<clipPath id="clip0_45_7908">
<rect x="0.5" y="0.810547" width="45" height="45" rx="10" fill="white"/>
</clipPath>
</defs>
</svg>
