<svg width="54" height="54" viewBox="0 0 54 54" fill="none" xmlns="http://www.w3.org/2000/svg">
<path d="M47.0306 9.21404V19.7609L38.7956 12.5047V9.21404C38.8462 6.93591 40.7194 5.13029 42.9975 5.16404C45.2081 5.21466 46.9969 7.00341 47.0306 9.21404Z" fill="#FA313F"/>
<path d="M27 17.9722C28.9744 17.9722 30.5775 19.5753 30.5775 21.5497C30.5775 23.524 28.9744 25.1272 27 25.1272C25.0256 25.1103 23.4225 23.524 23.4225 21.5328C23.4225 19.5584 25.0256 17.9722 27 17.9722Z" fill="#FFDA5C"/>
<path d="M53.1394 25.1271C53.6625 25.5996 53.7131 26.3927 53.2575 26.9158C52.785 27.439 51.9919 27.4896 51.4688 27.034L47.4188 23.4733L47.4019 23.4565L30.0206 8.16771C28.2994 6.66584 25.7006 6.66584 23.9794 8.16771L6.9525 23.1358V45.5627C6.9525 47.4021 8.45438 48.904 10.3106 48.904H27C27.6919 48.904 28.2656 49.4777 28.2656 50.1696C28.2656 50.8783 27.6919 51.4352 27 51.4352H10.3106C7.05375 51.4352 4.43813 48.8027 4.42125 45.5627V25.3633L2.53125 27.034C2.00813 27.4896 1.19813 27.439 0.742502 26.9158C0.286877 26.3927 0.337502 25.5996 0.860627 25.1271L22.3088 6.27771C24.9919 3.93209 29.0081 3.93209 31.7081 6.27771L36.2644 10.294V9.21396C36.2644 5.53521 39.2344 2.56521 42.9131 2.54834C46.5919 2.56521 49.5619 5.53521 49.5619 9.21396V21.9883L53.1394 25.1271ZM47.0306 19.7608V9.21396C46.9969 7.00334 45.2081 5.21459 42.9975 5.16396C40.7194 5.13021 38.8462 6.93584 38.7956 9.21396V12.5046L47.0306 19.7608Z" fill="#626262"/>
<path d="M53.5781 40.3481C53.5781 46.4737 48.6169 51.435 42.4913 51.435C36.3656 51.435 31.4044 46.4737 31.4044 40.3481C31.4044 34.2225 36.3656 29.2612 42.4913 29.2612C48.6 29.2781 53.5613 34.2394 53.5781 40.3481ZM51.0469 40.3481C51.0469 35.6231 47.2163 31.7925 42.4913 31.7925C37.7663 31.7925 33.9356 35.6231 33.9356 40.3481C33.9356 45.0731 37.7663 48.9037 42.4913 48.9037C44.8538 48.9037 46.98 47.9419 48.5325 46.4062C50.085 44.8537 51.03 42.7106 51.0469 40.3481Z" fill="#626262"/>
<path d="M42.4912 31.7925C47.2162 31.7925 51.0469 35.6231 51.0469 40.3481C51.03 42.7106 50.085 44.8537 48.5325 46.4062C46.98 47.9419 44.8537 48.9037 42.4912 48.9037C37.7662 48.9037 33.9356 45.0731 33.9356 40.3481C33.9356 35.6231 37.7662 31.7925 42.4912 31.7925ZM47.8912 40.3481C47.8912 39.6562 47.3175 39.0825 46.6087 39.0825H43.74V36.2137C43.74 35.5219 43.1831 34.9481 42.4744 34.9481C41.7825 34.9481 41.2087 35.5219 41.2087 36.2137V39.0825H38.34C37.6481 39.0825 37.0744 39.6562 37.0744 40.3481C37.0744 41.0569 37.6481 41.6137 38.34 41.6137H41.2087V44.4825C41.2087 45.1912 41.7825 45.7481 42.4744 45.7481C43.1831 45.7481 43.74 45.1912 43.74 44.4825V41.6137H46.6087C47.3175 41.6137 47.8912 41.0569 47.8912 40.3481Z" fill="#47A777"/>
<path d="M46.6087 39.0826C47.3175 39.0826 47.8912 39.6564 47.8912 40.3482C47.8912 41.057 47.3175 41.6139 46.6087 41.6139H43.74V44.4826C43.74 45.1914 43.1831 45.7482 42.4744 45.7482C41.7825 45.7482 41.2087 45.1914 41.2087 44.4826V41.6139H38.34C37.6481 41.6139 37.0744 41.057 37.0744 40.3482C37.0744 39.6564 37.6481 39.0826 38.34 39.0826H41.2087V36.2139C41.2087 35.522 41.7825 34.9482 42.4744 34.9482C43.1831 34.9482 43.74 35.522 43.74 36.2139V39.0826H46.6087Z" fill="#626262"/>
<path d="M27 15.4409C30.375 15.4409 33.1088 18.1747 33.1088 21.5328C33.1088 24.9078 30.375 27.6415 27 27.6584C23.625 27.6584 20.8913 24.9247 20.8913 21.5497C20.8913 18.1747 23.625 15.4409 27 15.4409ZM30.5775 21.5497C30.5775 19.5753 28.9744 17.9722 27 17.9722C25.0256 17.9722 23.4225 19.5584 23.4225 21.5328C23.4225 23.524 25.0256 25.1103 27 25.1272C28.9744 25.1272 30.5775 23.524 30.5775 21.5497Z" fill="#626262"/>
</svg>
