<svg width="54" height="54" viewBox="0 0 54 54" fill="none" xmlns="http://www.w3.org/2000/svg">
<g clip-path="url(#clip0_208_111)">
<path d="M20.0188 22.3545H5.6234C4.47122 22.3545 3.53391 23.2919 3.53391 24.4441V31.5972C3.53391 32.7493 4.47132 33.6866 5.6234 33.6866H20.0188C21.171 33.6866 22.1084 32.7492 22.1084 31.5972V24.4441C22.1083 23.2919 21.171 22.3545 20.0188 22.3545ZM20.5275 31.5972C20.5275 31.8777 20.2992 32.1059 20.0187 32.1059H5.6234C5.34286 32.1059 5.1147 31.8777 5.1147 31.5972V24.4441C5.1147 24.1635 5.34297 23.9353 5.6234 23.9353H20.0188C20.2994 23.9353 20.5276 24.1635 20.5276 24.4441V31.5972H20.5275Z" fill="#0BB908"/>
<path d="M4.28015 38.3805C4.28015 39.7009 5.35435 40.7752 6.67484 40.7752C7.99532 40.7752 9.06952 39.701 9.06952 38.3805C9.06952 37.06 7.99532 35.9858 6.67484 35.9858C5.35435 35.9858 4.28015 37.0601 4.28015 38.3805V38.3805ZM7.48873 38.3805C7.48873 38.8293 7.12368 39.1944 6.67484 39.1944C6.226 39.1944 5.86094 38.8293 5.86094 38.3805C5.86094 37.9318 6.226 37.5666 6.67484 37.5666C7.12368 37.5666 7.48873 37.9319 7.48873 38.3805Z" fill="#626262"/>
<path d="M10.6421 38.3805C10.6421 39.7009 11.7163 40.7752 13.0368 40.7752C14.3573 40.7752 15.4315 39.701 15.4315 38.3805C15.4315 37.06 14.3573 35.9858 13.0368 35.9858C11.7163 35.9858 10.6421 37.0601 10.6421 38.3805ZM13.8507 38.3805C13.8507 38.8293 13.4856 39.1944 13.0368 39.1944C12.5879 39.1944 12.2229 38.8293 12.2229 38.3805C12.2229 37.9318 12.5879 37.5666 13.0368 37.5666C13.4856 37.5666 13.8507 37.9319 13.8507 38.3805Z" fill="#626262"/>
<path d="M19.3993 37.5903H18.1979C17.7614 37.5903 17.4076 37.9441 17.4076 38.3807C17.4076 38.8173 17.7614 39.1711 18.1979 39.1711H19.3993C19.8359 39.1711 20.1897 38.8173 20.1897 38.3807C20.1897 37.9441 19.8359 37.5903 19.3993 37.5903Z" fill="#626262"/>
<path d="M21.8828 38.3807C21.8828 38.8173 22.2367 39.1711 22.6732 39.1711H30.392C30.8286 39.1711 31.1824 38.8173 31.1824 38.3807C31.1824 37.9441 30.8286 37.5903 30.392 37.5903H22.6732C22.2366 37.5903 21.8828 37.9442 21.8828 38.3807Z" fill="#626262"/>
<path d="M25.0901 26.0134H30.129C30.5656 26.0134 30.9194 25.6596 30.9194 25.223C30.9194 24.7864 30.5656 24.4326 30.129 24.4326H25.0901C24.6536 24.4326 24.2997 24.7864 24.2997 25.223C24.2997 25.6596 24.6536 26.0134 25.0901 26.0134Z" fill="#626262"/>
<path d="M25.0901 30.0188H30.129C30.5656 30.0188 30.9194 29.665 30.9194 29.2284C30.9194 28.7918 30.5656 28.438 30.129 28.438H25.0901C24.6536 28.438 24.2997 28.7918 24.2997 29.2284C24.2997 29.665 24.6536 30.0188 25.0901 30.0188Z" fill="#626262"/>
<path d="M52.4444 20.7379H50.79C50.3534 20.7379 49.9997 21.0917 49.9997 21.5283C49.9997 21.9649 50.3534 22.3187 50.79 22.3187H52.4193V25.7765L51.6502 26.4667C51.2901 26.7898 51.0836 27.2525 51.0836 27.7362V29.2227C51.0836 29.6666 51.2532 30.0871 51.5615 30.4068L52.4193 31.2964V32.6373L51.5613 33.527C51.2532 33.8466 51.0836 34.2671 51.0836 34.7109V36.1974C51.0836 36.6813 51.2901 37.1441 51.6502 37.467L52.4193 38.1572V41.6149H46.8742C45.866 41.6149 45.0457 40.7947 45.0457 39.7865V24.1472C45.0457 23.139 45.8659 22.3187 46.8742 22.3187H47.4217C47.8583 22.3187 48.2121 21.9649 48.2121 21.5283C48.2121 21.0917 47.8583 20.7379 47.4217 20.7379H46.8742C45.3706 20.7379 44.092 21.7168 43.6401 23.0706H41.8699C40.7625 23.0706 39.8399 23.8702 39.6448 24.9219L38.0704 26.1706H34.3396V22.0079C34.3396 20.6696 33.4577 19.5335 32.2446 19.1498V13.6931C32.3501 13.5245 32.4387 13.3443 32.5073 13.1545L34.748 14.0604C35.0522 14.1835 35.3731 14.2459 35.7017 14.2459H50.0378C52.2226 14.2459 54.0001 12.4684 54.0001 10.2836C54.0001 8.09872 52.2227 6.32117 50.0378 6.32117H48.3568C47.9202 6.32117 47.5664 6.67495 47.5664 7.11157C47.5664 7.54818 47.9202 7.90196 48.3568 7.90196H50.0378C51.3509 7.90196 52.4193 8.97036 52.4193 10.2836C52.4193 11.5967 51.3509 12.6651 50.0378 12.6651H35.7017C35.5772 12.6651 35.4558 12.6415 35.3405 12.5949L32.6751 11.5174V9.04983L35.3406 7.97236C35.456 7.92578 35.5774 7.90207 35.7017 7.90207H44.9884C45.4251 7.90207 45.7788 7.54829 45.7788 7.11167C45.7788 6.67506 45.4251 6.32128 44.9884 6.32128H35.7017C35.3733 6.32128 35.0524 6.38377 34.7481 6.50686L32.5073 7.41276C32.1128 6.32106 31.0663 5.53857 29.8403 5.53857C28.9157 5.53857 28.0934 5.98362 27.5756 6.67053H25.5431C23.9169 6.67053 22.5746 7.90965 22.4107 9.49329H11.1778C9.167 9.49329 7.53109 11.1291 7.53109 13.14C7.53109 14.5903 8.38999 15.9021 9.71922 16.4823L11.7388 17.3635V19.0109H2.99718C1.34451 19.0108 0 20.3552 0 22.0079V35.0922C0 35.5288 0.353886 35.8826 0.790395 35.8826C1.2269 35.8826 1.58079 35.5288 1.58079 35.0922V22.0079C1.58079 21.227 2.21616 20.5916 2.99718 20.5916H31.3423C32.1233 20.5916 32.7587 21.227 32.7587 22.0079V41.7961C32.7587 42.5771 32.1233 43.2125 31.3423 43.2125H2.99718C2.21616 43.2125 1.58079 42.5771 1.58079 41.7961V38.4606C1.58079 38.024 1.2269 37.6702 0.790395 37.6702C0.353886 37.6702 0 38.024 0 38.4606V41.7961C0 43.3577 1.20066 44.6435 2.72718 44.7805V45.7273C2.72718 47.2353 3.95398 48.462 5.46184 48.462H28.8777C30.3856 48.462 31.6123 47.2352 31.6123 45.7273V44.7805C33.1389 44.6435 34.3395 43.3576 34.3395 41.7961V38.0017L38.0911 37.7797L39.6448 39.012C39.8399 40.0638 40.7625 40.8633 41.8699 40.8633H43.64C44.0919 42.217 45.3705 43.1959 46.8741 43.1959H52.4443C53.3021 43.1959 54 42.4981 54 41.6402V38.1463C54 37.7051 53.8117 37.2832 53.4833 36.9884L52.7058 36.2905C52.6794 36.2669 52.6642 36.2331 52.6642 36.1977V34.7112C52.6642 34.6786 52.6767 34.6478 52.6992 34.6245L53.5642 33.7274C53.8452 33.4359 54 33.0525 54 32.6476V31.2866C54 30.8817 53.8452 30.4983 53.5641 30.2067L52.6994 29.3099C52.6767 29.2864 52.6642 29.2555 52.6642 29.2229V27.7365C52.6642 27.701 52.6794 27.6672 52.7059 27.6434L53.4834 26.9457C53.8117 26.6511 54 26.229 54 25.788V22.2936C54 21.4357 53.3021 20.7379 52.4444 20.7379V20.7379ZM29.0169 14.9062C29.2776 14.9856 29.554 15.0286 29.8404 15.0286C30.1267 15.0286 30.403 14.9856 30.6637 14.9062V19.0107H29.0168V14.9062H29.0169ZM28.5864 8.37325C28.5864 7.6817 29.1489 7.11926 29.8404 7.11926C30.5318 7.11926 31.0942 7.68181 31.0942 8.37325V12.1939C31.0942 12.8853 30.5317 13.4478 29.8404 13.4478H29.8403C29.1488 13.4478 28.5864 12.8852 28.5864 12.1939V8.37325ZM23.9746 9.81988C23.9746 8.95498 24.6782 8.25121 25.5431 8.25121H27.0056V12.3159H25.5431C24.6782 12.3159 23.9746 11.6122 23.9746 10.7473V9.81988ZM12.6347 16.0296L10.3515 15.0333C9.59845 14.7047 9.11189 13.9614 9.11189 13.1399C9.11189 12.0007 10.0387 11.074 11.1778 11.074H22.4107C22.5746 12.6576 23.9168 13.8967 25.5431 13.8967H27.4361V19.0107H13.3197V17.0759C13.3197 16.622 13.0509 16.2113 12.6347 16.0296V16.0296ZM30.0316 45.7273C30.0316 46.3635 29.514 46.8812 28.8778 46.8812H5.46184C4.82552 46.8812 4.30797 46.3635 4.30797 45.7273V44.7933H30.0316V45.7273ZM38.2991 36.1838L34.3396 36.4179V27.7514H38.3459C38.5242 27.7514 38.6973 27.6911 38.837 27.5803L39.6053 26.9708V36.9629L38.8371 36.3535C38.6846 36.2328 38.4943 36.1726 38.2991 36.1838ZM41.1861 38.5987V25.3351C41.1861 24.9581 41.4928 24.6514 41.8699 24.6514H43.4649V39.2824H41.8699C41.4928 39.2824 41.1861 38.9757 41.1861 38.5987Z" fill="#626262"/>
</g>
<defs>
<clipPath id="clip0_208_111">
<rect width="54" height="54" fill="white"/>
</clipPath>
</defs>
</svg>
