<svg width="46" height="46" viewBox="0 0 46 46" fill="none" xmlns="http://www.w3.org/2000/svg">
<path fill-rule="evenodd" clip-rule="evenodd" d="M23 0C10.2868 0 0 10.2877 0 23C0 35.7132 10.2877 46 23 46C35.7132 46 46 35.7123 46 23C46 10.2868 35.7122 0 23 0ZM23 42.4062C12.2733 42.4062 3.59375 33.726 3.59375 23C3.59375 12.2733 12.274 3.59375 23 3.59375C33.7267 3.59375 42.4062 12.274 42.4062 23C42.4062 33.7267 33.7259 42.4062 23 42.4062ZM23 19.2562C22.0076 19.2562 21.2031 20.0607 21.2031 21.0531V32.6243C21.2031 33.6167 22.0076 34.4212 23 34.4212C23.9924 34.4212 24.7969 33.6167 24.7969 32.6242V21.0531C24.7969 20.0607 23.9924 19.2562 23 19.2562ZM25.4258 14.6302C25.4258 15.9699 24.3397 17.0559 23 17.0559C21.6603 17.0559 20.5742 15.9699 20.5742 14.6302C20.5742 13.2904 21.6603 12.2044 23 12.2044C24.3397 12.2044 25.4258 13.2904 25.4258 14.6302Z" fill="#4D538F"/>
</svg>
