<svg width="58" height="58" viewBox="0 0 58 58" fill="none" xmlns="http://www.w3.org/2000/svg">
<path d="M56.1026 28.4091C57.3613 25.7544 57.9991 22.9072 57.9991 19.9365C57.9991 9.00573 49.0554 0.112793 38.0621 0.112793C27.6809 0.112793 19.139 8.13416 18.3059 18.3041C8.07302 19.1322 0.000453232 27.6765 0.000453232 38.0611C0.000453232 41.0317 0.638212 43.879 1.89696 46.5337L0.0334173 55.8524C-0.176375 56.9013 0.626317 57.8848 1.69963 57.8848C1.9442 57.8848 1.12316 58.0316 11.463 55.9873C14.1181 57.2468 16.9661 57.8848 19.9375 57.8848C30.3181 57.8848 38.8598 49.8642 39.6935 39.6948C42.0776 39.5034 44.3712 38.8899 46.5365 37.8628L55.9704 39.7279C57.1572 39.9626 58.2033 38.9138 57.9661 37.7279L56.1026 28.4091ZM19.9375 54.4865C17.307 54.4865 14.7951 53.8841 12.4711 52.696C12.1311 52.5223 11.7425 52.468 11.3681 52.5421L3.8645 54.0257L5.34267 46.6343C5.41778 46.2588 5.36385 45.8686 5.18929 45.5275C4.00134 43.2035 3.39881 40.6916 3.39881 38.0611C3.39881 29.5464 9.95628 22.525 18.319 21.7145C18.6923 25.8949 20.3686 29.7056 22.9382 32.737H13.5939C12.6555 32.737 11.8947 33.4978 11.8947 34.4362C11.8947 35.3746 12.6555 36.1354 13.5939 36.1354H26.6478C29.4212 38.0954 32.7178 39.361 36.2831 39.6796C35.4676 47.9797 28.4484 54.4865 19.9375 54.4865ZM52.657 28.5097L54.1352 35.9011L46.6316 34.4175C46.2572 34.3437 45.8685 34.3977 45.5286 34.5715C43.2046 35.7594 40.6926 36.3619 38.0622 36.3619C29.0052 36.3619 21.6368 28.9935 21.6368 19.9365C21.6368 10.8796 29.0052 3.51115 38.0622 3.51115C47.1817 3.51115 54.6008 10.8796 54.6008 19.9365C54.6008 22.567 53.9984 25.0789 52.8104 27.403C52.6359 27.744 52.5819 28.1341 52.657 28.5097Z" fill="#88D4FF"/>
</svg>
