<svg width="52" height="52" viewBox="0 0 52 52" fill="none" xmlns="http://www.w3.org/2000/svg">
<g clip-path="url(#clip0_17_1042)">
<path d="M43.3333 13C43.3333 10.4288 42.5709 7.91543 41.1424 5.77759C39.714 3.63975 37.6837 1.97351 35.3082 0.989572C32.9328 0.00563272 30.3189 -0.251811 27.7972 0.249797C25.2754 0.751405 22.959 1.98954 21.1409 3.80762C19.3229 5.6257 18.0847 7.94208 17.5831 10.4638C17.0815 12.9856 17.339 15.5995 18.3229 17.9749C19.3068 20.3503 20.9731 22.3807 23.1109 23.8091C25.2488 25.2376 27.7622 26 30.3333 26C33.7801 25.9966 37.0847 24.6258 39.5219 22.1886C41.9592 19.7514 43.3299 16.4468 43.3333 13ZM21.6667 13C21.6667 11.2859 22.175 9.61029 23.1273 8.18506C24.0796 6.75984 25.4331 5.64901 27.0167 4.99305C28.6004 4.33709 30.3429 4.16546 32.0241 4.49987C33.7053 4.83427 35.2495 5.65969 36.4616 6.87175C37.6736 8.0838 38.4991 9.62806 38.8335 11.3092C39.1679 12.9904 38.9963 14.733 38.3403 16.3166C37.6843 17.9002 36.5735 19.2538 35.1483 20.2061C33.723 21.1584 32.0474 21.6667 30.3333 21.6667C28.0348 21.6667 25.8304 20.7536 24.2051 19.1283C22.5798 17.503 21.6667 15.2985 21.6667 13Z" fill="#848484"/>
<path d="M36.8333 30.3335H23.8333C19.8123 30.3381 15.9573 31.9375 13.114 34.7808C10.2706 37.6241 8.67126 41.4791 8.66667 45.5002V49.8335C8.66667 50.4081 8.89495 50.9592 9.30127 51.3656C9.7076 51.7719 10.2587 52.0002 10.8333 52.0002C11.408 52.0002 11.9591 51.7719 12.3654 51.3656C12.7717 50.9592 13 50.4081 13 49.8335V45.5002C13.0034 42.628 14.1459 39.8745 16.1768 37.8436C18.2077 35.8127 20.9612 34.6703 23.8333 34.6668H36.8333C39.7055 34.6703 42.459 35.8127 44.4899 37.8436C46.5208 39.8745 47.6632 42.628 47.6667 45.5002V49.8335C47.6667 50.4081 47.8949 50.9592 48.3013 51.3656C48.7076 51.7719 49.2587 52.0002 49.8333 52.0002C50.408 52.0002 50.9591 51.7719 51.3654 51.3656C51.7717 50.9592 52 50.4081 52 49.8335V45.5002C51.9954 41.4791 50.396 37.6241 47.5527 34.7808C44.7094 31.9375 40.8544 30.3381 36.8333 30.3335Z" fill="#848484"/>
<path d="M8.66667 15.1665C8.09203 15.1665 7.54093 15.3948 7.1346 15.8011C6.72827 16.2074 6.5 16.7585 6.5 17.3332V21.6665H2.16667C1.59203 21.6665 1.04093 21.8948 0.634602 22.3011C0.228273 22.7074 0 23.2585 0 23.8332C0 24.4078 0.228273 24.9589 0.634602 25.3652C1.04093 25.7716 1.59203 25.9998 2.16667 25.9998H6.5V30.3332C6.5 30.9078 6.72827 31.4589 7.1346 31.8652C7.54093 32.2716 8.09203 32.4998 8.66667 32.4998C9.2413 32.4998 9.7924 32.2716 10.1987 31.8652C10.6051 31.4589 10.8333 30.9078 10.8333 30.3332V25.9998H15.1667C15.7413 25.9998 16.2924 25.7716 16.6987 25.3652C17.1051 24.9589 17.3333 24.4078 17.3333 23.8332C17.3333 23.2585 17.1051 22.7074 16.6987 22.3011C16.2924 21.8948 15.7413 21.6665 15.1667 21.6665H10.8333V17.3332C10.8333 16.7585 10.6051 16.2074 10.1987 15.8011C9.7924 15.3948 9.2413 15.1665 8.66667 15.1665Z" fill="#19B97F"/>
</g>
<defs>
<clipPath id="clip0_17_1042">
<rect width="52" height="52" fill="white"/>
</clipPath>
</defs>
</svg>
