<svg width="54" height="56" viewBox="0 0 54 56" fill="none" xmlns="http://www.w3.org/2000/svg">
<path d="M52.8355 36.5411L51.8452 34.1212C51.7443 33.8764 51.5504 33.6816 51.3061 33.5796C51.0618 33.4776 50.7869 33.4766 50.5419 33.577C50.2969 33.6773 50.1017 33.8708 49.9991 34.1148C49.8965 34.3589 49.8949 34.6337 49.9946 34.879L50.9834 37.2955C51.0276 37.4065 51.0263 37.5305 50.9797 37.6406C50.9331 37.7507 50.8449 37.8379 50.7344 37.8834L47.9439 39.0133C47.8313 39.0577 47.7059 39.0564 47.5942 39.0097C47.4826 38.963 47.3936 38.8746 47.3462 38.7633L46.7888 37.4004C46.7793 37.375 46.7702 37.351 46.7586 37.3266L33.625 5.21446C33.6162 5.18515 33.6059 5.1563 33.5942 5.12803L33.0283 3.7584C33.0053 3.7034 32.9934 3.64437 32.9934 3.58474C32.9933 3.52511 33.0051 3.46607 33.0281 3.41105C33.0511 3.35603 33.0848 3.30613 33.1273 3.26425C33.1697 3.22236 33.2201 3.18934 33.2754 3.16709L36.0654 2.03672C36.1771 1.99166 36.3018 1.99168 36.4135 2.03675C36.5251 2.08183 36.615 2.16847 36.664 2.27842L41.4002 13.8654L41.4095 13.8883L48.354 30.878C48.4559 31.1211 48.6497 31.3141 48.8932 31.415C49.1366 31.516 49.4101 31.5167 49.6541 31.4171C49.8981 31.3175 50.093 31.1256 50.1962 30.8831C50.2995 30.6406 50.3029 30.3671 50.2056 30.1222L48.2828 25.4179L51.1372 21.4908C51.4074 21.1412 51.5833 20.7279 51.6479 20.2908C51.7126 19.8536 51.6638 19.4071 51.5064 18.9942L49.627 14.3981C49.4217 13.9395 49.0902 13.5487 48.6713 13.2713C48.2523 12.9938 47.7632 12.8412 47.2608 12.8312L43.0356 12.5802L38.5122 1.51328C38.2598 0.91675 37.7833 0.443148 37.1853 0.194396C36.5872 -0.0543563 35.9154 -0.0583733 35.3145 0.183209L32.5245 1.31358C31.9227 1.56031 31.4431 2.0352 31.1903 2.63448C30.9376 3.23376 30.9324 3.9087 31.1758 4.51182L31.599 5.5366C30.5392 8.12645 29.0414 10.5145 27.1714 12.5963C26.996 12.7949 26.9066 13.055 26.9228 13.3195C26.939 13.5839 27.0594 13.8312 27.2577 14.007C27.4559 14.1827 27.7159 14.2727 27.9804 14.257C28.2449 14.2413 28.4924 14.1214 28.6685 13.9234C30.2375 12.1586 31.573 10.1993 32.6422 8.09385L43.963 35.7683C38.372 33.7668 31.2992 34.7978 26.7732 35.8551H26.7642L26.7526 35.8599C25.4438 36.1662 24.3504 36.4731 23.569 36.7098L17.3969 21.6183C20.0111 20.6444 22.4699 19.2958 24.6963 17.6148C24.9071 17.454 25.0454 17.216 25.0808 16.9532C25.1161 16.6904 25.0456 16.4243 24.8848 16.2135C24.7239 16.0027 24.4859 15.8644 24.2231 15.829C23.9603 15.7937 23.6942 15.8642 23.4834 16.025C21.1515 17.793 18.5475 19.1697 15.7734 20.1012C15.3037 20.2579 4.24068 24.0118 1.57223 30.4674C1.14689 31.4728 0.949079 32.5598 0.992973 33.6506C1.03687 34.7414 1.32138 35.809 1.82613 36.777C2.08004 37.7398 3.70504 42.6129 10.5263 42.6129C10.9071 42.6129 11.3179 42.5843 11.7317 42.5525C13.8069 43.7849 15.6671 45.3475 17.2392 47.1788C17.4113 47.3806 17.6565 47.5057 17.9209 47.5267C18.1853 47.5476 18.4471 47.4627 18.6489 47.2906C18.8507 47.1185 18.9758 46.8733 18.9967 46.6089C19.0177 46.3446 18.9328 46.0827 18.7607 45.881C17.5448 44.4641 16.1701 43.1919 14.6635 42.0892C16.2211 41.728 17.7492 41.2491 19.2345 40.6569C20.7521 41.5322 22.0285 42.7708 22.9492 44.2613C24.0446 45.8728 25.0057 47.5715 25.8227 49.3404C26.0162 49.7488 26.3582 50.0679 26.7791 50.2325C27.1999 50.3972 27.6677 50.3949 28.0869 50.2262C28.3885 50.118 28.7199 50.1278 29.0146 50.2534C29.3094 50.3791 29.5459 50.6114 29.6767 50.9039C29.7372 51.0487 29.7683 51.2041 29.7682 51.361C29.768 51.518 29.7366 51.6733 29.6757 51.818C29.6147 51.9653 29.5249 52.0991 29.4116 52.2114C29.2984 52.3237 29.1639 52.4124 29.0161 52.4723L25.6762 53.8185C25.1779 54.0259 24.6237 54.0569 24.1054 53.9063C23.7286 53.7983 23.3841 53.5992 23.1021 53.3268C22.8202 53.0543 22.6096 52.7168 22.4887 52.3438C22.2293 51.5718 21.918 50.8181 21.5571 50.088C21.4991 49.9702 21.4184 49.865 21.3197 49.7784C21.221 49.6917 21.1062 49.6254 20.9819 49.5831C20.8576 49.5409 20.7261 49.5235 20.5951 49.5321C20.4641 49.5406 20.336 49.5749 20.2182 49.6329C20.1004 49.6909 19.9952 49.7716 19.9086 49.8703C19.8219 49.969 19.7556 50.0837 19.7133 50.2081C19.6711 50.3324 19.6537 50.4638 19.6623 50.5949C19.6708 50.7259 19.7051 50.854 19.7631 50.9718C20.0844 51.6214 20.3614 52.2921 20.5922 52.9791C20.8153 53.6599 21.2018 54.2755 21.718 54.7722C22.2342 55.2689 22.8643 55.6315 23.5531 55.8282C23.9448 55.9439 24.3513 56.0018 24.7598 56.0001C25.3265 55.9972 25.8877 55.8879 26.4141 55.6778L29.7671 54.3263C30.4568 54.0439 31.0269 53.5306 31.3798 52.8741C31.7327 52.2177 31.8464 51.4589 31.7013 50.7279C31.5563 49.9968 31.1617 49.3389 30.5849 48.8669C30.0082 48.3948 29.2853 48.138 28.54 48.1403C28.2017 48.1377 27.8655 48.193 27.5459 48.3038C26.8407 46.8069 26.0412 45.3562 25.1522 43.9605C26.1263 43.2257 26.9025 42.2604 27.4112 41.1514C27.9199 40.0424 28.1451 38.8243 28.0666 37.6067C32.9067 36.5516 40.1079 35.7228 45.0581 38.4472L45.4975 39.527C45.6871 39.9766 46.005 40.3604 46.4114 40.6305C46.8178 40.9005 47.2947 41.0449 47.7827 41.0455C48.0956 41.0454 48.4055 40.9848 48.6953 40.8668L51.4961 39.7325C52.093 39.4823 52.5679 39.0076 52.8184 38.4107C53.0689 37.8138 53.075 37.1425 52.8355 36.5411ZM47.1426 14.8272C47.2677 14.8207 47.3922 14.8476 47.5034 14.9052C47.6147 14.9628 47.7085 15.049 47.7754 15.1549L49.6553 19.7521C49.6806 19.8499 49.6814 19.9525 49.6577 20.0507C49.6339 20.1489 49.5863 20.2397 49.519 20.3151L47.3928 23.2404L43.8747 14.6331L47.1426 14.8272ZM18.8843 38.6534C16.6488 39.6133 14.288 40.2503 11.8731 40.545C4.83305 41.2286 3.79297 36.4444 3.75293 36.2472C3.73597 36.155 3.70605 36.0658 3.66406 35.982C3.26628 35.2607 3.03757 34.4585 2.99519 33.6359C2.95282 32.8133 3.09788 31.9918 3.41943 31.2335C5.34052 26.5815 12.9201 23.3236 15.5238 22.3226L21.69 37.3996C20.7074 37.8754 19.7775 38.2964 18.8843 38.6534ZM23.9964 42.3164C23.2738 41.3442 22.4307 40.4678 21.4871 39.7081C21.9772 39.4841 22.4697 39.2527 22.9653 39.0045C22.9785 38.9996 23.0913 38.9576 23.3027 38.8897C23.82 38.7195 24.7986 38.4133 26.0848 38.0796C26.0877 38.8991 25.9005 39.7082 25.5382 40.4433C25.1759 41.1784 24.6481 41.8195 23.9964 42.3164V42.3164Z" fill="#E73F3F"/>
</svg>
