<svg width="54" height="54" viewBox="0 0 54 54" fill="none" xmlns="http://www.w3.org/2000/svg">
<g clip-path="url(#clip0_16_951)">
<path d="M53.2078 44.479H51.8965V16.558C51.8965 13.7039 49.5744 11.3818 46.7203 11.3818H40.825C40.3873 11.3818 40.0328 11.7364 40.0328 12.174C40.0328 12.6116 40.3873 12.9662 40.825 12.9662H46.7203C48.7008 12.9662 50.3121 14.5775 50.3121 16.558V44.479H32.6039C32.0633 44.479 31.559 44.7457 31.255 45.1926L31.0174 45.5417C30.7967 45.8661 30.4307 46.0597 30.0383 46.0597H23.856C23.4636 46.0597 23.0976 45.8661 22.8768 45.5417L22.6394 45.1927C22.3354 44.7459 21.8312 44.479 21.2905 44.479H3.68787V16.558C3.68787 14.5775 5.29917 12.9662 7.27973 12.9662H12.3818C12.8194 12.9662 13.174 12.6116 13.174 12.174C13.174 11.7364 12.8194 11.3818 12.3818 11.3818H7.27973C4.42566 11.3818 2.10351 13.7038 2.10351 16.558V44.479H0.792182C0.354581 44.479 0 44.8336 0 45.2712V46.9205C0 49.9024 2.42598 52.3284 5.40786 52.3284H48.5921C51.574 52.3284 54 49.9024 54 46.9205V45.2712C54 44.8336 53.6454 44.479 53.2078 44.479V44.479ZM52.4156 46.9205C52.4156 49.0288 50.7004 50.744 48.5921 50.744H5.40786C3.2996 50.744 1.58436 49.0288 1.58436 46.9205V46.0634H21.2905C21.3061 46.0634 21.3207 46.071 21.3296 46.084L21.5671 46.433C22.0832 47.1913 22.9387 47.644 23.856 47.644H30.0383C30.9555 47.644 31.8111 47.1913 32.3272 46.433L32.5647 46.084L32.5648 46.0839C32.5736 46.071 32.5882 46.0634 32.6038 46.0634H52.4155V46.9205H52.4156Z" fill="#626262"/>
<path d="M5.48348 41.8912C5.48348 42.3288 5.83806 42.6834 6.27566 42.6834H47.7243C48.1619 42.6834 48.5165 42.3288 48.5165 41.8912V16.558C48.5165 15.5675 47.7107 14.7617 46.7203 14.7617H40.825C40.3874 14.7617 40.0328 15.1163 40.0328 15.5539C40.0328 15.9915 40.3874 16.3461 40.825 16.3461H46.7203C46.8371 16.3461 46.9322 16.441 46.9322 16.558V41.099H35.4406V37.8646C35.4406 36.1445 34.7708 34.5274 33.5545 33.311L32.5231 32.2796C32.889 31.7122 33.1724 31.0824 33.3516 30.4033C33.4633 29.9803 33.2108 29.5469 32.7878 29.4352C32.3646 29.3238 31.9315 29.5759 31.8196 29.999C31.6361 30.6944 31.3095 31.3227 30.8771 31.8565C30.874 31.8603 30.8708 31.864 30.8677 31.8677C29.9425 33.0036 28.536 33.7078 27 33.7078C24.2512 33.7078 22.0148 31.4714 22.0148 28.7226C22.0148 25.9738 24.2512 23.7375 27 23.7375C29.1211 23.7375 31.0136 25.0836 31.7094 27.0873C31.8528 27.5005 32.3036 27.7194 32.7175 27.5758C33.1309 27.4324 33.3495 26.981 33.2061 26.5677C32.2892 23.9272 29.7952 22.1531 27 22.1531C23.3775 22.1531 20.4305 25.1001 20.4305 28.7226C20.4305 30.0317 20.8169 31.2516 21.4794 32.2771L20.4455 33.311C19.2291 34.5275 18.5593 36.1445 18.5593 37.8646V41.099H7.06785V38.1968C7.06785 37.7592 6.71327 37.4046 6.27566 37.4046C5.83806 37.4046 5.48348 37.7592 5.48348 38.1968V41.8912ZM20.1437 37.8645C20.1437 36.5676 20.6488 35.3484 21.5659 34.4313L22.4974 33.4998C23.6743 34.6097 25.2586 35.292 27 35.292C28.7196 35.292 30.3156 34.6216 31.505 33.5021L32.4342 34.4312C33.3513 35.3483 33.8564 36.5675 33.8564 37.8644V41.0988H20.1437V37.8645Z" fill="#626262"/>
<path d="M6.27566 35.6101C6.71327 35.6101 7.06785 35.2555 7.06785 34.8179V16.558C7.06785 16.4411 7.1628 16.3461 7.27962 16.3461H12.3818C12.8194 16.3461 13.174 15.9915 13.174 15.5539C13.174 15.1163 12.8194 14.7617 12.3818 14.7617H7.27962C6.28918 14.7617 5.48348 15.5675 5.48348 16.558V34.8179C5.48348 35.2554 5.83806 35.6101 6.27566 35.6101V35.6101Z" fill="#626262"/>
<path d="M18.2021 20.4787H35.0045C36.9035 20.4787 38.4483 18.9338 38.4483 17.0349V5.11624C38.4483 3.21722 36.9034 1.67236 35.0045 1.67236H18.2021C16.3031 1.67236 14.7584 3.21733 14.7584 5.11624V6.77528C14.7584 7.21289 15.1129 7.56747 15.5505 7.56747C15.9881 7.56747 16.3427 7.21289 16.3427 6.77528V5.11624C16.3427 4.09084 17.1768 3.25673 18.2021 3.25673H35.0045C36.0298 3.25673 36.8639 4.09084 36.8639 5.11624V17.0349C36.8639 18.0602 36.0298 18.8943 35.0045 18.8943H18.2021C17.1768 18.8943 16.3427 18.0602 16.3427 17.0349V10.1541C16.3427 9.7165 15.9881 9.36192 15.5505 9.36192C15.1129 9.36192 14.7584 9.7165 14.7584 10.1541V17.0349C14.7584 18.9338 16.3032 20.4787 18.2021 20.4787Z" fill="#626262"/>
<path d="M24.4884 15.9861C24.8442 15.9861 25.1999 15.891 25.5235 15.701L30.396 12.8381C31.0276 12.467 31.4045 11.8082 31.4045 11.0757C31.4045 10.3432 31.0275 9.68441 30.396 9.31345L25.5234 6.45061C24.8836 6.0747 24.1169 6.07026 23.4728 6.43899C22.8286 6.80762 22.4441 7.47084 22.4441 8.21295V13.9386C22.4441 14.6808 22.8287 15.3441 23.4728 15.7127C23.7913 15.8949 24.1399 15.9861 24.4884 15.9861V15.9861ZM24.0284 8.21285C24.0284 7.97234 24.1901 7.85383 24.2596 7.81401C24.3015 7.79003 24.3851 7.75159 24.4905 7.75159C24.5597 7.75159 24.6383 7.76828 24.7207 7.81665L29.5934 10.6795C29.7981 10.7997 29.8201 10.9966 29.8201 11.0756C29.8201 11.1547 29.798 11.3516 29.5933 11.4719L24.7208 14.3347C24.5133 14.4566 24.3293 14.3771 24.2598 14.3374C24.1902 14.2975 24.0285 14.1789 24.0285 13.9384V8.21285H24.0284Z" fill="#E73F3F"/>
</g>
<defs>
<clipPath id="clip0_16_951">
<rect width="54" height="54" fill="white"/>
</clipPath>
</defs>
</svg>
