<svg width="20" height="17" viewBox="0 0 20 17" fill="none" xmlns="http://www.w3.org/2000/svg">
<path fill-rule="evenodd" clip-rule="evenodd" d="M3.27985 0.655515C3.13767 0.523035 2.94963 0.450912 2.75532 0.45434C2.56102 0.457769 2.37564 0.536481 2.23822 0.673894C2.10081 0.811307 2.0221 0.996692 2.01867 1.19099C2.01524 1.38529 2.08737 1.57334 2.21985 1.71552L16.7198 16.2155C16.7885 16.2892 16.8713 16.3483 16.9633 16.3893C17.0553 16.4303 17.1546 16.4523 17.2553 16.4541C17.356 16.4559 17.4561 16.4374 17.5494 16.3996C17.6428 16.3619 17.7277 16.3058 17.7989 16.2346C17.8701 16.1633 17.9262 16.0785 17.964 15.9851C18.0017 15.8917 18.0202 15.7917 18.0184 15.691C18.0167 15.5903 17.9946 15.491 17.9536 15.399C17.9126 15.307 17.8535 15.2242 17.7798 15.1555L16.0348 13.4105C17.5204 12.2855 18.6631 10.7688 19.3348 9.03052C19.4815 8.64913 19.4815 8.22691 19.3348 7.84552C18.6086 5.95889 17.3278 4.33656 15.6612 3.1923C13.9946 2.04804 12.0204 1.43554 9.99885 1.43552C8.34282 1.43278 6.71227 1.84316 5.25485 2.62952L3.27985 0.655515ZM7.75185 5.12552L8.84385 6.21752C9.31561 5.97093 9.85377 5.88138 10.38 5.96188C10.9062 6.04238 11.3929 6.28874 11.7694 6.6651C12.1459 7.04145 12.3924 7.52814 12.473 8.05432C12.5537 8.58049 12.4643 9.11868 12.2178 9.59052L13.3088 10.6825C13.8324 9.91264 14.071 8.98424 13.9836 8.05732C13.8961 7.1304 13.488 6.26302 12.8297 5.60468C12.1713 4.94634 11.304 4.53827 10.377 4.4508C9.45012 4.36333 8.52172 4.60194 7.75185 5.12552Z" fill="#CDCDCD"/>
<path d="M10.7479 12.3656L13.2709 14.8886C12.219 15.2518 11.1137 15.4367 10.0009 15.4356C5.74288 15.4356 2.10688 12.7756 0.663883 9.02557C0.516987 8.64388 0.516987 8.22125 0.663883 7.83957C1.15235 6.57597 1.8923 5.42472 2.83888 4.45557L6.06988 7.68757C5.94778 8.32838 5.98426 8.98934 6.17614 9.61283C6.36803 10.2363 6.70949 10.8034 7.17076 11.2647C7.63204 11.726 8.19914 12.0674 8.82263 12.2593C9.44611 12.4512 10.1071 12.4877 10.7479 12.3656Z" fill="#CDCDCD"/>
</svg>
