<svg width="51" height="51" viewBox="0 0 51 51" fill="none" xmlns="http://www.w3.org/2000/svg">
<path d="M25.5 50.1626C39.3071 50.1626 50.5 38.9697 50.5 25.1626C50.5 11.3555 39.3071 0.162598 25.5 0.162598C11.6929 0.162598 0.5 11.3555 0.5 25.1626C0.5 38.9697 11.6929 50.1626 25.5 50.1626Z" fill="#F5F6F9"/>
<path d="M24.1051 29.9727C24.1051 29.9727 25.0244 30.0709 25.5 30.0709C29.9182 30.0709 33.5 27.1807 33.5 23.6167C33.5 20.0528 29.9175 17.1626 25.5 17.1626C21.0825 17.1626 17.5 20.0528 17.5 23.6167C17.5 25.8264 18.876 27.7765 20.9742 28.9397C20.6623 30.1166 20.0107 31.1699 19.1044 31.9622C19.1044 31.9622 18.9473 32.2441 19.4178 32.1392C21.0703 31.6424 22.6473 30.9133 24.1036 29.9727" fill="#222222"/>
</svg>
