<svg width="20" height="21" viewBox="0 0 20 21" fill="none" xmlns="http://www.w3.org/2000/svg">
<path d="M10 12.9355C10.663 12.9355 11.2989 12.6722 11.7678 12.2033C12.2366 11.7345 12.5 11.0986 12.5 10.4355C12.5 9.77251 12.2366 9.13662 11.7678 8.66778C11.2989 8.19894 10.663 7.93555 10 7.93555C9.33696 7.93555 8.70107 8.19894 8.23223 8.66778C7.76339 9.13662 7.5 9.77251 7.5 10.4355C7.5 11.0986 7.76339 11.7345 8.23223 12.2033C8.70107 12.6722 9.33696 12.9355 10 12.9355Z" fill="#8B71E3"/>
<path fill-rule="evenodd" clip-rule="evenodd" d="M0.663883 11.0255C0.516987 10.6439 0.516987 10.2212 0.663883 9.83955C1.39111 7.95404 2.67234 6.33299 4.33884 5.18985C6.00535 4.04672 7.97899 3.4351 9.99988 3.43555C14.2569 3.43555 17.8929 6.09555 19.3359 9.84555C19.4829 10.2265 19.4819 10.6495 19.3359 11.0315C18.6087 12.9171 17.3274 14.5381 15.6609 15.6812C13.9944 16.8244 12.0208 17.436 9.99988 17.4355C5.74288 17.4355 2.10688 14.7755 0.663883 11.0255ZM13.9999 10.4355C13.9999 11.4964 13.5785 12.5138 12.8283 13.264C12.0782 14.0141 11.0607 14.4355 9.99988 14.4355C8.93902 14.4355 7.9216 14.0141 7.17146 13.264C6.42131 12.5138 5.99988 11.4964 5.99988 10.4355C5.99988 9.37468 6.42131 8.35727 7.17146 7.60712C7.9216 6.85697 8.93902 6.43555 9.99988 6.43555C11.0607 6.43555 12.0782 6.85697 12.8283 7.60712C13.5785 8.35727 13.9999 9.37468 13.9999 10.4355Z" fill="#8B71E3"/>
</svg>
