<svg width="20" height="21" viewBox="0 0 20 21" fill="none" xmlns="http://www.w3.org/2000/svg">
<rect width="20" height="20" transform="translate(0 0.162598)" fill="white"/>
<path fill-rule="evenodd" clip-rule="evenodd" d="M19.258 10.4114C19.258 9.72985 19.1968 9.07448 19.0832 8.44531H10.0303V12.1635H15.2034C14.9806 13.365 14.3033 14.383 13.2853 15.0646V17.4764H16.3918C18.2094 15.803 19.258 13.3388 19.258 10.4114Z" fill="#4285F4"/>
<path fill-rule="evenodd" clip-rule="evenodd" d="M10.0298 19.8049C12.6251 19.8049 14.8009 18.9442 16.3913 17.4762L13.2848 15.0644C12.4241 15.6411 11.3231 15.9819 10.0298 15.9819C7.52623 15.9819 5.40717 14.291 4.6513 12.019H1.43994V14.5095C3.02159 17.6509 6.27227 19.8049 10.0298 19.8049Z" fill="#34A853"/>
<path fill-rule="evenodd" clip-rule="evenodd" d="M4.65172 12.0191C4.45947 11.4423 4.35024 10.8263 4.35024 10.1927C4.35024 9.55921 4.45947 8.94315 4.65172 8.36642V5.87598H1.44036C0.78935 7.17363 0.417969 8.64168 0.417969 10.1927C0.417969 11.7438 0.78935 13.2119 1.44036 14.5095L4.65172 12.0191Z" fill="#FBBC05"/>
<path fill-rule="evenodd" clip-rule="evenodd" d="M10.0298 4.40361C11.441 4.40361 12.7081 4.88859 13.7043 5.84108L16.4612 3.08412C14.7966 1.53305 12.6207 0.580566 10.0298 0.580566C6.27227 0.580566 3.02159 2.73458 1.43994 5.87603L4.6513 8.36647C5.40717 6.09449 7.52623 4.40361 10.0298 4.40361Z" fill="#EA4335"/>
</svg>
