<svg width="91" height="90" viewBox="0 0 91 90" fill="none" xmlns="http://www.w3.org/2000/svg">
<circle cx="45.5" cy="50.75" r="30" fill="#F3F0FC"/>
<path d="M45.5 50.75C44.8125 50.75 44.2238 50.505 43.7337 50.015C43.2437 49.525 42.9992 48.9367 43 48.25C43 47.5625 43.245 46.9738 43.735 46.4838C44.225 45.9938 44.8133 45.7492 45.5 45.75C46.1875 45.75 46.7762 45.995 47.2663 46.485C47.7563 46.975 48.0008 47.5633 48 48.25C48 48.9375 47.755 49.5263 47.265 50.0163C46.775 50.5063 46.1867 50.7508 45.5 50.75ZM38.625 47C38.9792 47 39.2762 46.88 39.5162 46.64C39.7562 46.4 39.8758 46.1033 39.875 45.75C39.875 45.3958 39.755 45.0988 39.515 44.8588C39.275 44.6188 38.9783 44.4992 38.625 44.5C38.2708 44.5 37.9738 44.62 37.7338 44.86C37.4938 45.1 37.3742 45.3967 37.375 45.75C37.375 46.1042 37.495 46.4013 37.735 46.6413C37.975 46.8813 38.2717 47.0008 38.625 47ZM36.75 62C36.3958 62 36.0988 61.88 35.8588 61.64C35.6188 61.4 35.4992 61.1033 35.5 60.75C35.5 60.3958 35.62 60.0988 35.86 59.8588C36.1 59.6188 36.3967 59.4992 36.75 59.5H39.5312L40.1875 56.875C38.125 56.5208 36.4117 55.5363 35.0475 53.9213C33.6833 52.3063 33.0008 50.4158 33 48.25C33 45.8125 33.8492 43.7446 35.5475 42.0463C37.2458 40.3479 39.3133 39.4992 41.75 39.5H49.25C51.6875 39.5 53.7554 40.3492 55.4537 42.0475C57.1521 43.7458 58.0008 45.8133 58 48.25C58 50.4167 57.3175 52.3075 55.9525 53.9225C54.5875 55.5375 52.8742 56.5217 50.8125 56.875L51.4688 59.5H54.25C54.6042 59.5 54.9012 59.62 55.1412 59.86C55.3812 60.1 55.5008 60.3967 55.5 60.75C55.5 61.1042 55.38 61.4012 55.14 61.6412C54.9 61.8812 54.6033 62.0008 54.25 62H36.75ZM45.5 53.25C46.875 53.25 48.0521 52.7604 49.0312 51.7813C50.0104 50.8021 50.5 49.625 50.5 48.25C50.5 46.875 50.0104 45.6979 49.0312 44.7188C48.0521 43.7396 46.875 43.25 45.5 43.25C44.125 43.25 42.9479 43.7396 41.9688 44.7188C40.9896 45.6979 40.5 46.875 40.5 48.25C40.5 49.625 40.9896 50.8021 41.9688 51.7813C42.9479 52.7604 44.125 53.25 45.5 53.25Z" fill="#A894EA"/>
<rect x="28.4766" y="9.25" width="34.0478" height="19.62" rx="9.81" fill="#8B71E3"/>
<path d="M53.5245 19.8201C53.4845 19.4468 53.3478 19.1434 53.1145 18.9101C52.8812 18.6768 52.5578 18.5601 52.1445 18.5601C51.7245 18.5601 51.3812 18.6668 51.1145 18.8801C50.8478 19.0934 50.6845 19.4068 50.6245 19.8201H53.5245ZM49.6245 20.2401C49.6245 19.7534 49.7212 19.3101 49.9145 18.9101C50.1145 18.5101 50.4012 18.1934 50.7745 17.9601C51.1545 17.7201 51.6045 17.6001 52.1245 17.6001C52.8178 17.6001 53.3245 17.7668 53.6445 18.1001C53.9645 18.4268 54.1812 18.7334 54.2945 19.0201C54.4478 19.4134 54.5245 19.8701 54.5245 20.3901L54.5145 20.7001H50.6245C50.7045 21.0801 50.8745 21.3768 51.1345 21.5901C51.3945 21.8034 51.7278 21.9101 52.1345 21.9101C52.4345 21.9101 52.6745 21.8701 52.8545 21.7901C53.0412 21.7034 53.1612 21.6301 53.2145 21.5701C53.2678 21.5101 53.3345 21.4168 53.4145 21.2901L54.3245 21.7101C54.1778 22.0368 53.9178 22.3134 53.5445 22.5401C53.1712 22.7601 52.6978 22.8701 52.1245 22.8701C51.6045 22.8701 51.1545 22.7534 50.7745 22.5201C50.4012 22.2801 50.1145 21.9601 49.9145 21.5601C49.7212 21.1601 49.6245 20.7201 49.6245 20.2401Z" fill="white"/>
<path d="M47.9093 19.8201C47.8693 19.4468 47.7326 19.1434 47.4993 18.9101C47.2659 18.6768 46.9426 18.5601 46.5293 18.5601C46.1093 18.5601 45.7659 18.6668 45.4993 18.8801C45.2326 19.0934 45.0693 19.4068 45.0093 19.8201H47.9093ZM44.0093 20.2401C44.0093 19.7534 44.1059 19.3101 44.2993 18.9101C44.4993 18.5101 44.7859 18.1934 45.1593 17.9601C45.5393 17.7201 45.9893 17.6001 46.5093 17.6001C47.2026 17.6001 47.7093 17.7668 48.0293 18.1001C48.3493 18.4268 48.5659 18.7334 48.6793 19.0201C48.8326 19.4134 48.9093 19.8701 48.9093 20.3901L48.8993 20.7001H45.0093C45.0893 21.0801 45.2593 21.3768 45.5193 21.5901C45.7793 21.8034 46.1126 21.9101 46.5193 21.9101C46.8193 21.9101 47.0593 21.8701 47.2393 21.7901C47.4259 21.7034 47.5459 21.6301 47.5993 21.5701C47.6526 21.5101 47.7193 21.4168 47.7993 21.2901L48.7093 21.7101C48.5626 22.0368 48.3026 22.3134 47.9293 22.5401C47.5559 22.7601 47.0826 22.8701 46.5093 22.8701C45.9893 22.8701 45.5393 22.7534 45.1593 22.5201C44.7859 22.2801 44.4993 21.9601 44.2993 21.5601C44.1059 21.1601 44.0093 20.7201 44.0093 20.2401Z" fill="white"/>
<path d="M42.0542 18.6001C42.2075 18.2934 42.4508 18.0467 42.7842 17.8601C43.1175 17.6734 43.4308 17.5801 43.7242 17.5801V18.6301C43.4242 18.6301 43.1442 18.7101 42.8842 18.8701C42.6308 19.0301 42.4275 19.2367 42.2742 19.4901C42.1275 19.7367 42.0542 19.9834 42.0542 20.2301V22.8401H41.0142V17.6101H42.0542V18.6001Z" fill="white"/>
<path d="M37.3766 22.87V18.74H36.4766V17.72H37.3766V16.98C37.3766 16.6733 37.4532 16.3867 37.6066 16.12C37.7599 15.8533 37.9666 15.6433 38.2266 15.49C38.4932 15.33 38.7799 15.25 39.0866 15.25C39.2799 15.25 39.4766 15.2867 39.6766 15.36C39.8766 15.4267 40.0499 15.51 40.1966 15.61L39.6066 16.46C39.5399 16.4067 39.4599 16.3633 39.3666 16.33C39.2732 16.2967 39.1866 16.28 39.1066 16.28C38.8866 16.28 38.7166 16.3433 38.5966 16.47C38.4766 16.59 38.4166 16.76 38.4166 16.98V17.72H39.9666V18.74H38.4166V22.87H37.3766Z" fill="white"/>
</svg>
