<svg width="33" height="33" viewBox="0 0 33 33" fill="none" xmlns="http://www.w3.org/2000/svg">
<path d="M6.12695 14.2175V8.51281C6.12695 8.23772 6.23623 7.9739 6.43075 7.77938C6.62527 7.58486 6.88909 7.47559 7.16418 7.47559H25.8342C26.1093 7.47559 26.3731 7.58486 26.5676 7.77938C26.7621 7.9739 26.8714 8.23772 26.8714 8.51281V14.2175C26.1837 14.2175 25.5241 14.4907 25.0378 14.977C24.5515 15.4633 24.2783 16.1229 24.2783 16.8106C24.2783 17.4983 24.5515 18.1579 25.0378 18.6442C25.5241 19.1304 26.1837 19.4036 26.8714 19.4036V25.1084C26.8714 25.3835 26.7621 25.6473 26.5676 25.8418C26.3731 26.0363 26.1093 26.1456 25.8342 26.1456H7.16418C6.88909 26.1456 6.62527 26.0363 6.43075 25.8418C6.23623 25.6473 6.12695 25.3835 6.12695 25.1084V19.4036C6.81467 19.4036 7.47423 19.1304 7.96052 18.6442C8.44681 18.1579 8.72001 17.4983 8.72001 16.8106C8.72001 16.1229 8.44681 15.4633 7.96052 14.977C7.47423 14.4907 6.81467 14.2175 6.12695 14.2175ZM18.5736 9.55003H8.2014V12.6285C8.98057 13.0147 9.63637 13.6108 10.0949 14.3497C10.5533 15.0887 10.7963 15.941 10.7963 16.8106C10.7963 17.6802 10.5533 18.5325 10.0949 19.2714C9.63637 20.0104 8.98057 20.6065 8.2014 20.9927V24.0711H18.5736V9.55003ZM20.6481 9.55003V24.0711H24.797V20.9927C24.0178 20.6065 23.362 20.0104 22.9035 19.2714C22.445 18.5325 22.2021 17.6802 22.2021 16.8106C22.2021 15.941 22.445 15.0887 22.9035 14.3497C23.362 13.6108 24.0178 13.0147 24.797 12.6285V9.55003H20.6481Z" fill="#404040"/>
</svg>
