<svg width="54" height="26" viewBox="0 0 54 26" fill="none" xmlns="http://www.w3.org/2000/svg">
<g clip-path="url(#clip0_0_1)">
<path d="M6.91211 22.5002C6.01211 22.5002 5.11211 22.1002 4.41211 21.5002C3.71211 20.8002 3.41211 20.0002 3.41211 19.0002V6.2002C3.41211 5.3002 3.81211 4.4002 4.41211 3.7002C5.01211 3.0002 5.91211 2.7002 6.91211 2.7002H19.7121C20.6121 2.7002 21.5121 3.1002 22.2121 3.7002C22.9121 4.4002 23.2121 5.2002 23.2121 6.2002V19.0002C23.2121 19.9002 22.8121 20.8002 22.2121 21.5002C21.5121 22.2002 20.7121 22.5002 19.7121 22.5002H6.91211ZM11.6121 16.4002C11.5121 16.4002 11.5121 16.4002 11.5121 16.5002V20.9002C11.5121 21.0002 11.5121 21.0002 11.6121 21.0002H19.7121C20.2121 21.0002 20.8121 20.8002 21.1121 20.4002C21.5121 20.0002 21.7121 19.5002 21.7121 19.0002V16.5002C21.7121 16.4002 21.7121 16.4002 21.6121 16.4002H11.6121ZM6.91211 4.2002C6.41211 4.2002 5.81211 4.4002 5.51211 4.8002C5.11211 5.2002 4.91211 5.7002 4.91211 6.2002V19.0002C4.91211 20.1002 5.81211 21.0002 6.91211 21.0002H10.0121C10.1121 21.0002 10.1121 21.0002 10.1121 20.9002V4.3002C10.1121 4.2002 10.1121 4.2002 10.0121 4.2002H6.91211ZM11.6121 4.2002C11.5121 4.2002 11.5121 4.2002 11.5121 4.3002V14.9002C11.5121 15.0002 11.5121 15.0002 11.6121 15.0002H21.6121C21.7121 15.0002 21.7121 15.0002 21.7121 14.9002V6.2002C21.7121 5.7002 21.5121 5.1002 21.1121 4.8002C20.7121 4.4002 20.2121 4.2002 19.7121 4.2002H11.6121Z" fill="#CDCDCD"/>
</g>
<path d="M31.5 6.21121C31.5 5.25348 31.8805 4.33498 32.5577 3.65777C33.2349 2.98055 34.1534 2.6001 35.1111 2.6001H38.1667V22.6001H35.1111C34.1534 22.6001 33.2349 22.2196 32.5577 21.5424C31.8805 20.8652 31.5 19.9467 31.5 18.989V6.21121ZM39.8333 22.6001H47.8889C48.8466 22.6001 49.7651 22.2196 50.4423 21.5424C51.1195 20.8652 51.5 19.9467 51.5 18.989V16.489H39.8333V22.6001ZM51.5 14.8223V6.21121C51.5 5.25348 51.1195 4.33498 50.4423 3.65777C49.7651 2.98055 48.8466 2.6001 47.8889 2.6001H39.8333V14.8223H51.5Z" fill="#6E4DDC"/>
<defs>
<clipPath id="clip0_0_1">
<rect width="25" height="25" fill="white" transform="translate(0.8125 0.100098)"/>
</clipPath>
</defs>
</svg>
