<svg width="24" height="21" viewBox="0 0 24 21" fill="none" xmlns="http://www.w3.org/2000/svg">
<path d="M12.1245 20.3994C11.9728 20.4003 11.8224 20.3712 11.6819 20.3138C11.5414 20.2565 11.4137 20.1719 11.3059 20.0651L2.34773 11.0953C1.22405 9.95992 0.59375 8.42698 0.59375 6.82953C0.59375 5.23208 1.22405 3.69915 2.34773 2.56372C3.4802 1.43445 5.01425 0.800293 6.61355 0.800293C8.21284 0.800293 9.74689 1.43445 10.8794 2.56372L12.1245 3.80888L13.3697 2.56372C14.5021 1.43445 16.0362 0.800293 17.6355 0.800293C19.2348 0.800293 20.7688 1.43445 21.9013 2.56372C23.025 3.69915 23.6553 5.23208 23.6553 6.82953C23.6553 8.42698 23.025 9.95992 21.9013 11.0953L12.9431 20.0651C12.8354 20.1719 12.7076 20.2565 12.5671 20.3138C12.4267 20.3712 12.2762 20.4003 12.1245 20.3994Z" fill="#6E4DDC"/>
</svg>
