<svg width="30" height="30" viewBox="0 0 30 30" fill="none" xmlns="http://www.w3.org/2000/svg">
<path fill-rule="evenodd" clip-rule="evenodd" d="M10.0051 3.79639C11.8554 3.79644 13.6381 4.49152 15.0001 5.74389C16.3622 4.49173 18.1449 3.79669 19.9951 3.79639C20.9733 3.79714 21.9417 3.99122 22.8446 4.36749C23.7475 4.74376 24.5671 5.29478 25.2563 5.98889C28.2013 8.94764 28.2013 13.5664 25.2589 16.5089L15.9901 25.7776C15.8765 25.9343 15.7278 26.0622 15.5559 26.151C15.384 26.2398 15.1936 26.287 15.0001 26.2889C14.5288 26.2889 14.1188 26.0476 13.9063 25.6739L4.74135 16.5089C1.79885 13.5676 1.7976 8.94764 4.73885 5.99389C5.42843 5.2985 6.24872 4.74636 7.15252 4.36922C8.05632 3.99209 9.02577 3.79741 10.0051 3.79639Z" fill="#E9E9E9"/>
</svg>
