<svg width="14" height="14" viewBox="0 0 14 14" fill="none" xmlns="http://www.w3.org/2000/svg">
<g clip-path="url(#clip0_30_4280)">
<path d="M6.37005 1.67307C6.43425 1.56292 6.5262 1.47152 6.63674 1.40799C6.74729 1.34447 6.87256 1.31104 7.00005 1.31104C7.12755 1.31104 7.25282 1.34447 7.36336 1.40799C7.4739 1.47152 7.56586 1.56292 7.63005 1.67307L9.26047 4.47191L12.4268 5.15791C12.5514 5.18497 12.6666 5.24421 12.7611 5.32972C12.8557 5.41522 12.9261 5.52401 12.9655 5.64524C13.0048 5.76646 13.0118 5.89588 12.9855 6.02061C12.9593 6.14533 12.9008 6.261 12.8159 6.35607L10.6576 8.77166L10.9842 11.9946C10.9971 12.1215 10.9765 12.2495 10.9244 12.366C10.8723 12.4824 10.7906 12.5832 10.6874 12.6581C10.5842 12.7331 10.4631 12.7797 10.3363 12.7933C10.2094 12.8068 10.0813 12.7869 9.96455 12.7354L7.00005 11.4287L4.03555 12.7354C3.91884 12.7869 3.79066 12.8068 3.66383 12.7933C3.53699 12.7797 3.41593 12.7331 3.31273 12.6581C3.20953 12.5832 3.12781 12.4824 3.07572 12.366C3.02363 12.2495 3.003 12.1215 3.01589 11.9946L3.34255 8.77166L1.18422 6.35666C1.09919 6.26159 1.04058 6.14588 1.01424 6.02107C0.987911 5.89627 0.994776 5.76675 1.03415 5.64543C1.07353 5.52411 1.14404 5.41524 1.23865 5.3297C1.33325 5.24415 1.44865 5.18491 1.5733 5.15791L4.73964 4.47191L6.37005 1.67307Z" fill="#FFCC49"/>
</g>
<defs>
<clipPath id="clip0_30_4280">
<rect width="14" height="14" fill="white"/>
</clipPath>
</defs>
</svg>
