<svg width="30" height="31" viewBox="0 0 30 31" fill="none" xmlns="http://www.w3.org/2000/svg">
<path d="M24.375 6.5293H21.3773L19.9219 4.34258C19.7932 4.14978 19.6189 3.99176 19.4145 3.88258C19.21 3.7734 18.9818 3.71645 18.75 3.7168H11.25C11.0182 3.71645 10.79 3.7734 10.5855 3.88258C10.3811 3.99176 10.2068 4.14978 10.0781 4.34258L8.62148 6.5293H5.625C4.75476 6.5293 3.92016 6.875 3.30481 7.49035C2.68945 8.10571 2.34375 8.94031 2.34375 9.81055V22.9355C2.34375 23.8058 2.68945 24.6404 3.30481 25.2557C3.92016 25.8711 4.75476 26.2168 5.625 26.2168H24.375C24.8059 26.2168 25.2326 26.1319 25.6307 25.967C26.0288 25.8021 26.3905 25.5604 26.6952 25.2557C26.9999 24.9511 27.2416 24.5893 27.4065 24.1912C27.5714 23.7931 27.6562 23.3664 27.6562 22.9355V9.81055C27.6562 9.37965 27.5714 8.95297 27.4065 8.55487C27.2416 8.15677 26.9999 7.79505 26.6952 7.49035C26.3905 7.18566 26.0288 6.94397 25.6307 6.77907C25.2326 6.61417 24.8059 6.5293 24.375 6.5293ZM24.8438 22.9355C24.8438 23.0599 24.7944 23.1791 24.7065 23.267C24.6185 23.3549 24.4993 23.4043 24.375 23.4043H5.625C5.50068 23.4043 5.38145 23.3549 5.29354 23.267C5.20564 23.1791 5.15625 23.0599 5.15625 22.9355V9.81055C5.15625 9.68623 5.20564 9.567 5.29354 9.47909C5.38145 9.39118 5.50068 9.3418 5.625 9.3418H9.375C9.60678 9.34214 9.83504 9.28519 10.0395 9.17602C10.2439 9.06684 10.4182 8.90882 10.5469 8.71602L12.0023 6.5293H17.9965L19.4531 8.71602C19.5818 8.90882 19.7561 9.06684 19.9605 9.17602C20.165 9.28519 20.3932 9.34214 20.625 9.3418H24.375C24.4993 9.3418 24.6185 9.39118 24.7065 9.47909C24.7944 9.567 24.8438 9.68623 24.8438 9.81055V22.9355ZM15 10.2793C13.8875 10.2793 12.7999 10.6092 11.8749 11.2273C10.9499 11.8454 10.2289 12.7239 9.80318 13.7517C9.37744 14.7795 9.26604 15.9105 9.48308 17.0017C9.70013 18.0928 10.2359 19.0951 11.0225 19.8818C11.8092 20.6684 12.8115 21.2042 13.9026 21.4212C14.9938 21.6383 16.1248 21.5269 17.1526 21.1011C18.1804 20.6754 19.0589 19.9544 19.677 19.0294C20.2951 18.1044 20.625 17.0168 20.625 15.9043C20.6234 14.4129 20.0303 12.9831 18.9758 11.9285C17.9212 10.874 16.4914 10.2808 15 10.2793ZM15 18.7168C14.4437 18.7168 13.9 18.5518 13.4375 18.2428C12.9749 17.9338 12.6145 17.4945 12.4016 16.9806C12.1887 16.4667 12.133 15.9012 12.2415 15.3556C12.3501 14.81 12.6179 14.3089 13.0113 13.9156C13.4046 13.5222 13.9057 13.2544 14.4513 13.1458C14.9969 13.0373 15.5624 13.093 16.0763 13.3059C16.5902 13.5188 17.0295 13.8792 17.3385 14.3418C17.6476 14.8043 17.8125 15.348 17.8125 15.9043C17.8125 16.6502 17.5162 17.3656 16.9887 17.893C16.4613 18.4205 15.7459 18.7168 15 18.7168Z" fill="#CDCDCD"/>
</svg>
