<svg width="32" height="33" viewBox="0 0 32 33" fill="none" xmlns="http://www.w3.org/2000/svg">
<path d="M24.212 7.47705H7.78529C7.29021 7.47705 6.81542 7.67372 6.46535 8.02379C6.11528 8.37386 5.91861 8.84865 5.91861 9.34373V21.2905C5.91861 21.7855 6.11528 22.2603 6.46535 22.6104C6.81542 22.9605 7.29021 23.1571 7.78529 23.1571H13.1268L14.398 25.2375C14.5635 25.5133 14.7974 25.7416 15.077 25.9004C15.3567 26.0591 15.6726 26.143 15.9942 26.1437C16.3158 26.1445 16.6321 26.0621 16.9125 25.9047C17.1929 25.7472 17.4279 25.52 17.5947 25.245L18.8705 23.1571H24.212C24.7071 23.1571 25.1819 22.9605 25.532 22.6104C25.8821 22.2603 26.0787 21.7855 26.0787 21.2905V9.34373C26.0787 8.84865 25.8821 8.37386 25.532 8.02379C25.1819 7.67372 24.7071 7.47705 24.212 7.47705ZM23.8387 20.9171H18.6615C18.3406 20.9172 18.0252 20.9999 17.7457 21.1573C17.4661 21.3147 17.2318 21.5416 17.0655 21.8159L15.9987 23.5613L14.9337 21.8187C14.7669 21.5442 14.5323 21.3171 14.2525 21.1593C13.9727 21.0014 13.6571 20.918 13.3359 20.9171H8.15862V9.71706H23.8387V20.9171Z" fill="#404040"/>
<path fill-rule="evenodd" clip-rule="evenodd" d="M12.4252 15.5783C12.4252 14.9735 12.793 14.4832 13.2466 14.4832H18.7533C19.2069 14.4832 19.5746 14.9735 19.5746 15.5783C19.5746 16.1831 19.2069 16.6734 18.7533 16.6734H13.2466C12.793 16.6734 12.4252 16.1831 12.4252 15.5783Z" fill="#404040"/>
</svg>
