<svg width="20" height="20" viewBox="0 0 20 20" fill="none" xmlns="http://www.w3.org/2000/svg">
<g clip-path="url(#clip0_30_6306)">
<path d="M9.09986 2.39024C9.19157 2.23288 9.32293 2.1023 9.48085 2.01155C9.63877 1.9208 9.81773 1.87305 9.99986 1.87305C10.182 1.87305 10.361 1.9208 10.5189 2.01155C10.6768 2.1023 10.8082 2.23288 10.8999 2.39024L13.229 6.38858L17.7524 7.36858C17.9303 7.40724 18.095 7.49187 18.23 7.61402C18.365 7.73617 18.4657 7.89158 18.5219 8.06476C18.5781 8.23794 18.588 8.42283 18.5505 8.60101C18.513 8.77919 18.4295 8.94442 18.3082 9.08024L15.2249 12.5311L15.6915 17.1352C15.7099 17.3165 15.6805 17.4995 15.6061 17.6658C15.5316 17.8322 15.4149 17.9761 15.2675 18.0832C15.12 18.1903 14.9471 18.2569 14.7659 18.2762C14.5847 18.2956 14.4016 18.2671 14.2349 18.1936L9.99986 16.3269L5.76487 18.1936C5.59813 18.2671 5.41502 18.2956 5.23383 18.2762C5.05263 18.2569 4.87968 18.1903 4.73226 18.0832C4.58483 17.9761 4.46808 17.8322 4.39367 17.6658C4.31926 17.4995 4.28979 17.3165 4.3082 17.1352L4.77487 12.5311L1.69153 9.08108C1.57006 8.94526 1.48633 8.77996 1.44871 8.60168C1.41109 8.42339 1.4209 8.23835 1.47715 8.06504C1.5334 7.89173 1.63414 7.7362 1.76929 7.61399C1.90444 7.49178 2.06928 7.40716 2.24737 7.36858L6.7707 6.38858L9.09986 2.39024Z" fill="#FFCC49"/>
</g>
<defs>
<clipPath id="clip0_30_6306">
<rect width="20" height="20" fill="white"/>
</clipPath>
</defs>
</svg>
